<svg width="24" height="24" viewBox="0 0 24 24" fill="none" xmlns="http://www.w3.org/2000/svg">
<g id="ReImagined-FairTrade-new">
<path id="Vector" d="M12 24C9.62663 24 7.30655 23.2962 5.33316 21.9776C3.35977 20.6591 1.8217 18.7849 0.913451 16.5922C0.00519935 14.3995 -0.232441 11.9867 0.230582 9.65892C0.693605 7.33115 1.83649 5.19295 3.51472 3.51472C5.19295 1.83649 7.33115 0.693605 9.65892 0.230582C11.9867 -0.232441 14.3995 0.00519935 16.5922 0.913451C18.7849 1.8217 20.6591 3.35977 21.9776 5.33316C23.2962 7.30655 24 9.62663 24 12C24 15.1826 22.7357 18.2348 20.4853 20.4853C18.2348 22.7357 15.1826 24 12 24ZM12 0.973338C9.81913 0.973338 7.68724 1.62004 5.87392 2.83167C4.06059 4.04329 2.64728 5.76542 1.81269 7.78028C0.978111 9.79514 0.759746 12.0122 1.18521 14.1512C1.61068 16.2902 2.66087 18.2549 4.20297 19.797C5.74508 21.3391 7.70984 22.3893 9.84881 22.8148C11.9878 23.2403 14.2049 23.0219 16.2197 22.1873C18.2346 21.3527 19.9567 19.9394 21.1683 18.1261C22.38 16.3128 23.0267 14.1809 23.0267 12C23.0231 9.07663 21.8603 6.27401 19.7931 4.20687C17.726 2.13973 14.9234 0.976867 12 0.973338ZM12 6.40667C12.3705 6.40667 12.7327 6.2968 13.0408 6.09096C13.3488 5.88511 13.5889 5.59254 13.7307 5.25023C13.8725 4.90792 13.9096 4.53126 13.8373 4.16787C13.7651 3.80448 13.5866 3.47068 13.3246 3.20869C13.0627 2.9467 12.7289 2.76828 12.3655 2.696C12.0021 2.62372 11.6254 2.66082 11.2831 2.8026C10.9408 2.94439 10.6482 3.1845 10.4424 3.49257C10.2365 3.80064 10.1267 4.16283 10.1267 4.53334C10.1262 4.77963 10.1744 5.02359 10.2683 5.25125C10.3623 5.47892 10.5002 5.68583 10.6742 5.86014C10.8482 6.03445 11.0548 6.17273 11.2823 6.26709C11.5098 6.36144 11.7537 6.41 12 6.41V6.40667ZM18.4067 12.1367C18.4067 9.13667 15.5267 6.73334 11.9767 6.73334C8.42667 6.73334 5.55 9.15334 5.55 12.1367C5.5617 13.3357 6.01779 14.4878 6.83 15.37C6.74633 15.6843 6.70376 16.0081 6.70334 16.3333C6.70334 18.9733 9.10667 21.3567 12.07 21.3567C15.0333 21.3567 17.4333 19 17.4333 16.3333C17.4364 15.9479 17.379 15.5644 17.2633 15.1967C17.99 14.3414 18.3945 13.2589 18.4067 12.1367ZM16.8867 13.5933C16.8874 13.842 16.8617 14.0901 16.81 14.3333C16.3156 13.6922 15.6414 13.2129 14.8733 12.9567L15.25 10.5333C15.7434 10.8806 16.1487 11.3385 16.4335 11.8704C16.7183 12.4023 16.8746 12.9935 16.89 13.5967L16.8867 13.5933ZM8.08334 15.1533C8.00969 15.0571 7.96671 14.941 7.96 14.82C7.96 14.02 9.8 13.3733 12.07 13.3733C14.34 13.3733 16.1767 14 16.1767 14.8067C16.17 14.9276 16.127 15.0438 16.0533 15.14C15.69 14.4733 14.0533 13.9867 12.0533 13.9867C10.0533 13.9867 8.44667 14.4933 8.08334 15.1533ZM7.08334 13.5967C7.09921 12.9561 7.27227 12.3292 7.58731 11.7712C7.90235 11.2132 8.3497 10.7412 8.89 10.3967L9.29 12.9367C8.4367 13.2123 7.7022 13.7693 7.20667 14.5167C7.11938 14.2176 7.0723 13.9082 7.06667 13.5967H7.08334ZM8.23 15.3033C8.89667 14.79 10.3733 14.4333 12.0833 14.4333C13.7933 14.4333 15.2633 14.79 15.9367 15.3033C15.3333 15.8567 13.84 16.2533 12.0667 16.2533C10.2933 16.2533 8.79 15.8567 8.21334 15.3033H8.23Z" fill="black"/>
</g>
</svg>
