<?xml version="1.0" encoding="UTF-8"?>
<svg viewBox="-4 -4 32 32" version="1.1" xmlns="http://www.w3.org/2000/svg" xmlns:xlink="http://www.w3.org/1999/xlink">
    <!-- Generator: Sketch 63.1 (92452) - https://sketch.com -->
    <title>LinkedIn</title>
    <g id="Symbols" stroke="none" stroke-width="1" fill="none" fill-rule="evenodd">
        <g id="social-/-linkedin" transform="translate(-6.000000, -6.000000)" fill="#000000" fill-rule="nonzero">
            <path d="M25,6 L11,6 C8.239,6 6,8.239 6,11 L6,25 C6,27.761 8.239,30 11,30 L25,30 C27.762,30 30,27.761 30,25 L30,11 C30,8.239 27.762,6 25,6 Z M14,25 L11,25 L11,14 L14,14 L14,25 Z M12.5,12.732 C11.534,12.732 10.75,11.942 10.75,10.968 C10.75,9.994 11.534,9.204 12.5,9.204 C13.466,9.204 14.25,9.994 14.25,10.968 C14.25,11.942 13.467,12.732 12.5,12.732 Z M26,25 L23,25 L23,19.396 C23,16.028 19,16.283 19,19.396 L19,25 L16,25 L16,14 L19,14 L19,15.765 C20.396,13.179 26,12.988 26,18.241 L26,25 Z" id="Shape"></path>
        </g>
    </g>
</svg>
