<svg xmlns="http://www.w3.org/2000/svg" viewBox="0 0 24 32">
  <title>Instagram</title>
  <g id="_55_-_Instagram" data-name="55 - Instagram">
    <path d="M18.406,8.155a1.44,1.44,0,1,0,1.439,1.44A1.44058,1.44058,0,0,0,18.406,8.155ZM12,20a4,4,0,1,1,4-4A3.99954,3.99954,0,0,1,12,20ZM12,9.838A6.1625,6.1625,0,1,0,18.162,16,6.16222,6.16222,0,0,0,12,9.838ZM12,4c-3.259,0-3.667.014-4.947.072-4.358.2-6.78,2.618-6.98,6.98C.014,12.333,0,12.741,0,16s.014,3.668.072,4.948c.2,4.358,2.618,6.78,6.98,6.98C8.333,27.986,8.741,28,12,28s3.668-.014,4.948-.072c4.354-.2,6.782-2.618,6.979-6.98C23.986,19.668,24,19.259,24,16s-.014-3.667-.072-4.947c-.196-4.354-2.617-6.78-6.979-6.98C15.668,4.014,15.259,4,12,4Zm0,2.163c3.204,0,3.584.012,4.85.07,3.252.148,4.771,1.691,4.919,4.919.058,1.265.069,1.645.069,4.849,0,3.205-.012,3.584-.069,4.849-.149,3.225-1.664,4.771-4.919,4.919-1.266.058-1.644.07-4.85.07-3.204,0-3.584-.012-4.849-.07-3.26-.149-4.771-1.699-4.919-4.92-.058-1.265-.07-1.644-.07-4.849,0-3.204.013-3.583.07-4.849C2.381,7.924,3.896,6.38,7.151,6.232,8.417,6.175,8.796,6.163,12,6.163Z"/>
  </g>
</svg>
