<svg xmlns="http://www.w3.org/2000/svg" viewBox="0 0 23 32">
  <title>Pinterest</title>
  <g id="_49_-Pinterest" data-name="49 -Pinterest">
    <path fill-rule="evenodd" d="M11.50041,4.50123A11.49973,11.49973,0,1,1,8.21481,27.038,12.1816,12.1816,0,0,0,9.396,24.57377c.15442-.51338.8214-3.18293.8214-3.18293a3.23786,3.23786,0,0,0,2.77222,1.43745c3.6963,0,6.21224-3.33734,6.21224-7.855,0-3.38827-2.8749-6.62294-7.28992-6.62294-5.44177,0-8.214,3.90164-8.214,7.18724,0,2.00257.77047,3.748,2.36152,4.415a.44361.44361,0,0,0,.61605-.308c.05175-.20535.15442-.71873.20535-.92408.10268-.308.05175-.35977-.15442-.616A3.3214,3.3214,0,0,1,5.956,15.84558a5.40893,5.40893,0,0,1,5.64712-5.49352c3.08024,0,4.82572,1.84815,4.82572,4.36409,0,3.33735-1.4892,6.10957-3.64537,6.10957a1.77111,1.77111,0,0,1-1.84815-2.20792A23.3993,23.3993,0,0,0,11.962,14.56173a1.56662,1.56662,0,0,0-1.54013-1.74547c-1.23209,0-2.20792,1.28384-2.20792,2.97757A4.76964,4.76964,0,0,0,8.57377,17.642s-1.28385,5.33909-1.4892,6.26317a9.15993,9.15993,0,0,0-.20535,2.61862A11.496,11.496,0,0,1,11.49959,4.49959Z"/>
  </g>
</svg>
