<svg width="218" height="75" viewBox="0 0 218 75" fill="none" xmlns="http://www.w3.org/2000/svg">
<g clip-path="url(#clip0_7_1722)">
<path d="M63.1689 30.068C62.8559 31.383 62.8559 32.197 62.6679 32.385C62.4179 32.699 58.4099 36.018 50.4559 36.33C38.4319 36.769 32.4199 29.066 32.4199 19.546C32.4199 8.33597 39.7469 0.695967 50.1429 1.00897C56.7809 1.19697 61.1719 4.05797 61.9299 4.43697C62.6879 4.96797 62.8769 4.70197 63.0439 6.58297C63.2259 8.03697 63.3569 9.08797 63.6079 11.217C63.6079 11.467 63.6079 11.593 63.4199 11.655C63.1689 11.717 63.0439 11.342 62.8559 10.966C60.9769 7.20797 56.9689 2.13497 50.1429 2.13497C41.1879 2.13497 36.1149 7.77097 36.1149 17.603C36.1149 27.435 42.5029 35.013 50.5189 35.013C59.0989 35.013 62.0429 29.439 63.1689 27.748C63.3569 27.498 63.4199 27.247 63.6699 27.31C63.7949 27.373 63.7329 27.623 63.7329 27.936C63.6079 28.437 63.3569 29.376 63.1689 30.065" fill="black"/>
<path d="M121.498 33.719C120.37 35.18 119.118 36.069 118.054 36.133C115.799 36.26 114.233 36.133 111.791 36.006C109.473 35.879 106.741 35.879 104.862 35.879C103.672 35.879 101.041 36.26 99.413 36.323C98.474 36.387 98.286 36.323 97.847 36.196C97.66 36.132 97.534 36.006 97.534 35.878C97.534 35.687 97.722 35.624 97.973 35.624C99.413 35.561 100.165 35.243 100.665 34.226C101.229 33.147 101.354 32.194 101.354 29.589C101.354 29.145 101.417 23.11 101.417 18.981C101.417 17.139 101.417 16.123 101.354 14.281C101.291 11.041 101.104 5.95998 101.104 5.95998C101.041 3.29198 98.912 2.14898 97.472 2.14898C96.971 2.14898 96.783 2.08598 96.783 1.76798C96.783 1.44998 97.284 1.38698 97.722 1.38698C98.349 1.32298 100.478 1.44998 102.231 1.38698C105.05 1.44998 106.553 1.38698 109.371 1.44998C113.254 1.38698 116.698 1.25898 119.203 1.19598C119.517 1.19598 119.768 1.25898 119.705 1.76798C119.391 3.79998 119.33 5.07098 119.266 6.91298C119.266 7.35798 119.142 7.67498 118.891 7.67498C118.704 7.67498 118.641 7.54698 118.641 7.35698C118.641 4.81598 117.952 3.16498 114.507 2.97398C112.566 2.84698 112.315 2.84698 110.75 2.84698C109.185 2.84698 106.617 2.91098 106.24 2.97398C105.238 3.10098 104.612 3.54598 104.55 5.38798C104.55 5.38798 104.425 7.73798 104.425 9.32598V13.963C104.488 17.774 105.114 17.329 107.933 17.329C113.38 17.329 116.261 17.329 116.826 14.089C116.826 14.026 116.888 13.581 117.139 13.581C117.327 13.581 117.327 13.898 117.327 14.152C117.264 15.74 117.202 16.693 117.202 18.345C117.202 20.822 117.327 22.029 117.39 22.6C117.453 22.981 117.453 23.172 117.327 23.235C117.139 23.298 117.013 23.172 116.952 22.981C116.764 22.092 116.2 20.694 115.887 20.25C115.072 19.297 113.884 18.979 108.685 19.107C107.621 19.107 106.493 19.17 105.867 19.234C105.115 19.297 104.552 19.424 104.552 20.822V27.872C104.552 30.603 104.74 31.937 105.053 33.017C105.303 33.906 106.242 34.414 108.121 34.414C109.436 34.414 112.295 34.223 114.048 33.906C116.929 33.525 118.307 33.144 119.559 32.572C121.25 31.746 122.19 30.603 122.691 29.777C122.815 29.524 123.066 29.269 123.254 29.333C123.505 29.396 123.505 29.587 123.381 29.968C123.067 30.794 122.816 32.001 121.502 33.715" fill="black"/>
<path d="M75.511 2.41099C73.444 2.41099 72.693 3.24199 72.693 5.09699C72.693 5.28899 72.631 15.65 72.693 16.417C72.756 17.76 73.508 18.016 74.572 18.144C75.824 18.272 77.328 18.272 77.578 18.272C81.899 18.272 84.717 15.522 84.717 11.364C84.717 5.79999 81.273 2.40999 75.511 2.40999M94.424 36.564C92.608 36.564 91.105 36.244 90.103 35.732C89.164 35.22 87.848 34.005 86.22 31.51C84.78 29.271 81.46 23.963 80.959 22.94C80.27 21.852 79.769 21.277 79.08 20.573C78.642 19.997 77.828 19.742 76.825 19.678C76.512 19.678 75.322 19.55 75.072 19.55C73.005 19.486 72.629 19.742 72.692 23.26C72.692 23.26 72.755 28.825 72.755 29.016C72.88 33.365 73.507 34.837 76.262 35.604C76.951 35.796 77.827 35.859 78.203 35.923C78.391 35.987 78.579 35.987 78.579 36.179C78.579 36.436 78.454 36.499 78.203 36.499C77.452 36.499 73.319 36.179 72.129 36.179C71.065 36.179 68.184 36.371 66.43 36.563C66.117 36.626 65.866 36.499 65.866 36.243C65.866 35.923 66.117 35.923 66.43 35.796C68.559 34.9 69.186 34.388 69.374 31.575C69.436 30.615 69.562 26.458 69.562 23.26C69.562 19.806 69.499 17.824 69.436 14.434C69.311 8.29399 69.374 5.09599 68.685 3.75299C68.059 2.60199 67.307 2.60199 65.429 2.02599C65.116 1.89799 64.865 1.89799 64.865 1.57799C64.865 1.19499 65.366 1.12999 65.805 1.12999C67.37 1.12999 67.934 1.25799 69.312 1.25799C72.756 1.32199 75.888 1.06599 78.142 1.00199C80.898 0.937994 83.34 1.76999 85.031 2.85599C87.035 4.19999 88.162 6.94999 88.162 9.44399C88.162 12.898 86.158 15.968 82.839 18.014C82.651 18.142 82.275 18.334 82.275 18.654C82.275 19.102 84.717 22.812 85.093 23.323C85.093 23.323 89.727 30.423 90.792 31.702C92.295 33.62 93.735 34.836 94.174 35.027C94.612 35.219 95.238 35.411 95.865 35.539C96.178 35.603 96.24 35.731 96.24 35.859C96.24 36.179 95.426 36.563 94.424 36.563" fill="black"/>
<path d="M169.675 2.13897C169.361 2.32697 168.86 2.45197 168.234 3.01597C167.733 3.45397 167.107 4.89497 166.731 5.64697C166.042 7.02397 154.236 34.89 153.86 35.705C153.61 36.206 153.547 36.582 153.297 36.582C152.983 36.582 152.921 36.269 152.732 35.768C152.732 35.768 147.972 24.621 146.658 21.426C146.594 21.113 146.344 20.862 146.156 20.862C145.906 20.862 145.843 21.05 145.655 21.301C144.966 22.428 140.895 33.013 139.83 35.642C139.768 35.893 139.58 36.581 139.329 36.581C139.078 36.581 138.891 36.143 138.828 35.767C137.952 33.513 129.185 12.282 128.245 9.71397C126.992 6.14397 125.678 4.01497 125.176 3.45097C124.237 2.38597 123.423 2.26097 121.983 1.88497C121.732 1.82197 121.418 1.82197 121.418 1.44597C121.418 1.19597 121.857 1.06997 122.233 1.06997C123.486 1.06997 124.926 1.25797 126.617 1.25797C128.308 1.25797 130.75 1.06997 131.063 1.06997C131.439 1.06997 131.564 1.19597 131.627 1.38297C131.627 1.57097 131.564 1.69597 131.377 1.75897C130.688 2.00997 129.749 2.07197 129.686 3.44997C129.686 3.95097 130.437 6.45597 130.75 7.26997C131.376 8.89897 138.265 25.87 139.58 28.375C139.768 28.751 140.144 29.252 140.457 29.252C140.644 29.252 140.832 29.127 141.083 28.563C141.083 28.563 145.216 18.981 145.216 18.292C145.216 17.666 140.581 6.07997 140.268 5.51597C139.391 3.76297 138.576 2.44697 137.199 2.19697C136.885 2.13497 136.135 2.00897 135.695 1.94597C135.32 1.88397 135.132 1.75797 135.132 1.50797C135.132 1.19497 135.445 1.06897 136.071 1.06897C137.636 1.06897 139.014 1.38197 140.956 1.38197C142.521 1.38197 143.774 1.25697 145.026 1.19397C145.277 1.19397 145.402 1.19397 145.464 1.38197C145.527 1.56997 145.464 1.81997 145.089 1.94597C143.899 2.38497 143.585 2.69797 143.585 3.82497C143.585 5.39097 146.341 11.779 146.404 12.029C146.591 12.656 146.779 13.094 147.217 13.094C147.531 13.094 147.718 12.843 147.969 12.28C148.157 11.779 150.223 6.76897 150.725 5.14097C150.849 4.51397 150.849 3.88797 150.788 3.51297C150.663 2.44797 149.723 2.25997 148.47 1.82197C148.157 1.69697 148.095 1.63397 148.095 1.38397C148.095 1.13397 148.408 1.13297 148.784 1.13297C149.41 1.13297 150.349 1.44597 151.539 1.38397C151.539 1.38397 155.046 1.19597 155.36 1.19597C155.61 1.19597 155.861 1.25797 155.861 1.44597C155.861 1.75897 155.673 1.88497 155.423 1.94697C154.797 2.13497 154.42 2.25997 153.982 2.63597C153.481 3.01197 153.042 3.82597 152.729 4.63997C152.04 6.01797 149.848 11.216 149.035 13.345C148.095 15.913 148.283 16.351 148.283 16.351C148.596 18.167 153.418 28.563 153.543 28.813C154.044 29.627 154.232 29.941 154.545 29.941C154.796 29.941 155.109 29.189 155.297 28.939C156.424 26.935 162.406 11.908 163.596 8.90197C163.721 8.58897 165.099 5.14397 165.099 4.14197C165.099 3.32797 164.598 2.70197 164.035 2.51397C163.471 2.26297 162.782 2.01297 162.219 1.88797C162.031 1.82597 161.718 1.63797 161.718 1.44997C161.718 1.19897 161.969 1.19897 162.219 1.19897C162.594 1.19897 163.597 1.38697 165.851 1.38697C167.104 1.38697 168.606 1.32497 169.358 1.32497C169.734 1.32497 169.922 1.32497 169.984 1.63797C170.047 1.95097 169.859 2.01397 169.671 2.13897" fill="black"/>
<path d="M1.83502 33.31C3.67002 35.145 7.80602 36.385 11.914 36.385C18.738 36.385 25.453 32.566 25.453 20.913V12.125C25.502 5.87699 25.552 4.88499 25.8 3.89299C26.048 2.60399 27.337 2.45499 28.527 2.20699C28.725 2.15699 29.221 2.05799 29.221 1.75999C29.221 1.46199 29.072 1.31299 28.626 1.31299C28.081 1.31299 25.899 1.46199 24.56 1.46199C23.419 1.46199 18.103 1.11499 17.111 1.11499C16.863 1.11499 16.367 1.16499 16.367 1.61099C16.367 2.05699 17.012 2.10699 17.408 2.15699C21.673 2.55399 21.673 5.57799 21.673 6.96699V22.003C21.673 28.301 19.378 34.747 11.853 34.747C7.48002 34.747 3.71902 32.664 1.88402 28.4C1.43802 27.408 1.23902 26.714 0.644023 26.714C0.446023 26.714 -0.000976562 26.764 -0.000976562 27.408C-0.000976562 27.606 0.148023 28.251 0.148023 28.251C0.247023 28.598 0.594023 30.333 0.792023 31.375C0.990023 32.515 1.33802 32.813 1.83402 33.309" fill="black"/>
<path d="M29.393 36.319C28.34 35.266 27.287 34.214 26.301 33.095C27.288 31.91 28.275 30.792 29.393 29.739C30.511 30.726 31.499 31.91 32.42 33.029C31.433 34.148 30.446 35.266 29.393 36.319Z" fill="black"/>
<path d="M96.6431 51.181C95.1721 51.181 94.1401 52.391 94.1401 53.862C94.1401 55.333 95.1721 56.531 96.6431 56.531C98.1141 56.531 99.1461 55.333 99.1461 53.862C99.1461 52.391 98.1021 51.181 96.6431 51.181Z" fill="black"/>
<path d="M111.092 51.228H109.645V53.684H110.962C111.887 53.684 112.279 53.126 112.279 52.474C112.279 51.822 111.864 51.228 111.093 51.228H111.092Z" fill="black"/>
<path d="M55.5151 54.549H57.6031L56.5591 51.453L55.5151 54.549Z" fill="black"/>
<path d="M27.64 44.971L20.093 62.624H142.344L149.893 44.971H27.64ZM47.174 51.228H43.77V53.197H46.475V54.644H43.77V57.942H42.121V49.769H47.174V51.228ZM58.752 57.942L58.088 55.985H55.028L54.375 57.942H52.619L55.668 49.769H57.447L60.484 57.942H58.752ZM70.674 56.53C71.552 56.53 72.24 56.127 72.703 55.474L73.96 56.387C73.225 57.419 72.015 58.083 70.627 58.083C68.314 58.083 66.475 56.173 66.475 53.848C66.475 51.523 68.314 49.625 70.627 49.625C72.015 49.625 73.225 50.289 73.96 51.321L72.703 52.234C72.24 51.582 71.552 51.178 70.686 51.178C69.203 51.178 68.124 52.388 68.124 53.847C68.124 55.306 69.192 56.528 70.674 56.528V56.53ZM86.357 51.227H84.103V57.941H82.454V51.227H80.2V49.768H86.357V51.227ZM96.642 58.084C94.317 58.084 92.49 56.174 92.49 53.861C92.49 51.548 94.317 49.626 96.642 49.626C98.967 49.626 100.806 51.536 100.806 53.861C100.806 56.186 98.956 58.084 96.642 58.084ZM112.147 57.942L110.202 55.012H109.645V57.942H107.996V49.769H111.258C113.132 49.769 113.939 51.098 113.939 52.438C113.939 53.6 113.121 54.739 111.97 54.941L114.081 57.942H112.147ZM124.686 54.253V57.942H123.037V54.229L119.87 49.769H121.839L123.856 52.877L125.908 49.769H127.865L124.686 54.253Z" fill="black"/>
</g>
<defs>
<clipPath id="clip0_7_1722">
<rect width="170" height="61.624" fill="white" transform="translate(0 1)"/>
</clipPath>
</defs>
</svg>
