<svg id="Madewell-Logo" xmlns="http://www.w3.org/2000/svg" viewBox="0 0 76 24">
  <title>Madewell Logo</title>
  <g fill="#010101">
    <path d="M15.94842,17.9326c-.93333-1.5973-.12768-3.72045.33445-4.86351.94982-2.39225,2.32058-4.387,3.27534-6.71508.285-.69456.80976-2.15362.131-2.677-1.48608-1.15622-3.17068.33987-4.13285,1.20559-.327.29459-.77353.87558-1.02312.86407-.46462-.03867-.23147-.79826-.15241-1.17761.20184-.98587.05685-1.64586-1.042-1.58991a2.066,2.066,0,0,0-.76694.31271,12.33794,12.33794,0,0,0-2.03554,1.84749c-.32787.32917-.90944,1.15538-1.3139,1.02784C8.19674,5.81,10.2817,3.47047,8.7668,3.1232c-.77764-.18024-1.63519.68137-2.07508.98833Q4.1611,5.80758,1.62881,7.49788c-.416.274-2.05861.99-1.52232,1.80221C.52991,9.91483,1.56868,9.19888,1.932,8.952c1.1541-.70525,2.30986-1.436,3.4648-2.1577.35668-.24113,1.17634-.827,1.50336-.68467a.14831.14831,0,0,1,.09559.172A10.11543,10.11543,0,0,1,5.7205,8.72817c-1.108,1.82523-1.98529,3.88584-3.10316,5.71606-.35587.58592-1.54209,2.34615-.28339,2.72388,1.18214.35385,1.93259-1.53806,2.3107-2.26552.80646-1.50267,1.60222-3.01439,2.40706-4.51787.73891-1.2772.98276-2.24578,2.18876-3.0786.67382-.46247,1.35345-.91262,2.07589-1.32654a.83747.83747,0,0,1,.89463-.01893c.34763.40075-.54618,1.80633-.8559,2.33957C10.2949,10.1,9.42335,12.08,8.49906,13.99326c-.2669.56122-1.43912,2.39637-.32456,2.75926.94733.29215,1.65824-1.81207,1.99683-2.41446.83778-1.44341,1.62447-2.91729,2.496-4.34342a9.39084,9.39084,0,0,1,2.5504-3.1082c.631-.46332,1.24554-.99328,1.88728-1.46315.15815-.11606.51567-.31932.776-.15143.23558.15143.13426.58346.02058.80235-.46874.90686-.89051,1.5323-1.332,2.3149-.425.8147-.827,1.62939-1.25459,2.45809-.46131,1.04759-.89874,1.98984-1.35017,3.12383a4.82089,4.82089,0,0,0-.36492,3.00206,6.48773,6.48773,0,0,0,1.37157,2.37247c.27267.32344,1.46385,1.78659,2.03554,1.67222a.7882.7882,0,0,0,.49593-1.21136C17.08524,19.195,16.35865,18.63457,15.94842,17.9326Z"/>
    <path d="M75.87614,11.165a.50914.50914,0,0,0-.83366.12179c-.06015.2362-.112.5596-.18949.79988a7.05,7.05,0,0,1-.44728,1.03527,6.62848,6.62848,0,0,1-3.2918,2.64c-.62854.29047-2.43261.94881-2.82142-.01893-.32044-.7719.81142-1.673,1.13433-2.07462.5231-.53324,1.05362-1.0624,1.55033-1.58825,1.02477-1.26154,1.97213-2.37,2.93924-3.66614a6.92842,6.92842,0,0,0,.75949-1.12659,2.23049,2.23049,0,0,0-.32783-2.14866,1.78708,1.78708,0,0,0-1.421-.07489,6.51176,6.51176,0,0,0-2.33125,1.69277,15.031,15.031,0,0,0-3.1839,4.42654c-.54861,1.264-.71833,3.08431-1.71013,3.89491a3.86622,3.86622,0,0,1-2.87415.84184,1.15167,1.15167,0,0,1-.8147-1.92647c.46213-.64434,1.15164-1.05829,1.62858-1.65984a28.92244,28.92244,0,0,0,3.53893-4.657c.37646-.725,1.32463-2.4482.3468-3.18636-1.19034-.89208-2.76126.47729-3.33709,1.148a15.63171,15.63171,0,0,0-3.00429,4.6265c-.53052,1.35536-.60381,3.504-1.72252,4.364a7.57991,7.57991,0,0,1-2.94663,1.371c-.60215.13414-1.4737.18845-1.78345-.22054-1.00665-1.25,1.36252-2.64819,2.09485-3.08022.56842-.302,1.59319-.57111.84766-1.35044-.25373-.31189-2.57594,1.08215-2.83376-.22546a.98739.98739,0,0,1,.16311-.70033A2.65973,2.65973,0,0,1,56.62623,9.218c.47121-.18186.90533-.1226,1.28674-.36538.98772-.64927-.11779-1.11012-.84354-1.23191a2.8857,2.8857,0,0,0-2.75717,1.71251c-.19192.39912-.3501,1.16445-.84847,1.2772-.42508.10367-1.16564-.50118-1.29662-.70856-.08567-.13742-.10545-.353-.23066-.45424-.16888-.1144-.61454-.107-.72326.05595a3.51179,3.51179,0,0,0-.17711.79084c-.103.41229-.20511.72911-.34187,1.12166a10.81882,10.81882,0,0,1-1.71593,2.81439c-.23228.31848-.96792,1.21464-1.63354.98175-.5898-.22877-.2257-1.37922-.07494-1.794.48355-1.31668,1.27848-2.39883,1.80653-3.60523.21912-.49048.16476-1.02457-.35257-1.148-.7134-.18106-1.28427,1.16195-1.50916,1.57755-.42177.748-.83777,1.50267-1.25462,2.27538a6.64359,6.64359,0,0,1-1.25789,1.80221c-.31386.29543-1.06182.81142-1.66647.49788-.52887-.24359-.11617-1.264.07329-1.65409.63762-1.1381,1.276-2.30832,1.91693-3.47359.2257-.51268.29986-1.17923-.24385-1.40885-.9086-.39994-1.32625,1.28132-1.56433,1.83842-.49344,1.13976-1.00746,2.31244-1.4762,3.50075-.1491.4131-.12768.98833-.36738,1.31338a6.30292,6.30292,0,0,1-1.86585,1.106c-.56429.24933-2.65668.90932-3.22425.21561-.44566-.52835.033-1.1875.33529-1.54053a6.15815,6.15815,0,0,1,2.11048-1.40062c.57664-.24278,1.17387-.24278,1.43419-.79661a.32088.32088,0,0,0-.0626-.33c-.19442-.25347-1.32956-.10782-1.884-.32836-.8864-.34645-.04859-1.64751.30644-1.92893.61042-.46085,2.632-.60816,2.57429-1.49116-.00577-.04033-.033-.056-.05932-.07489A2.37084,2.37084,0,0,0,39.243,8.265a3.11757,3.11757,0,0,0-2.29667,1.69931,1.77775,1.77775,0,0,0,.98357,2.55356.25228.25228,0,0,1,.06344.16047,12.64491,12.64491,0,0,1-1.79253,1.334A12.58714,12.58714,0,0,1,33.85308,15.65c-.65735.26992-1.74475.51681-1.98033-.31435-.21666-.7497.66066-1.994.91355-2.49346C33.578,11.2868,34.34652,9.69031,35.167,8.15228c.2982-.56537.52225-1.07557.832-1.60307.22735-.37608,1.60223-2.6704.4572-2.779-.48767-.03044-.9696,1.10931-1.49681,1.97668q-.91189,1.69975-1.81227,3.40937c-.26363.44769-.46955,1.09449-.75872,1.306-.0832.04691-.33033-.12591-.49755-.19749a2.89158,2.89158,0,0,0-.82954-.20738,2.54553,2.54553,0,0,0-1.43582.381,7.89394,7.89394,0,0,0-2.72092,2.32232c-.27267.40817-.547.83444-.81885,1.23273a5.12861,5.12861,0,0,1-1.2752,1.02207,1.491,1.491,0,0,1-1.25542.409,1.03933,1.03933,0,0,1-.64666-1.43109,6.20119,6.20119,0,0,1,.8378-1.10847q.6524-.88385,1.31144-1.76188c.196-.19918.74137-.7604.45636-1.19243a1.18854,1.18854,0,0,0-.41847-.24032c-.85839-.395-.91521.35965-1.477.53409a.22644.22644,0,0,1-.13261.00246c-.21254-.12341-.33694-.44189-.65243-.5785a3.22817,3.22817,0,0,0-2.43918.45013c-1.37322.79742-3.26873,2.4943-2.5776,4.84048a3.17483,3.17483,0,0,0,.52475.98091,1.89666,1.89666,0,0,0,2.12944.446c.31305-.17035.88228-.7472,1.35264-.51515l.43908.34976a2.18736,2.18736,0,0,0,1.52151.43284c.65736-.12342.81965-.50361,1.23893-.81881.08486-.06254.42012-.2798.608-.18187.17957.093.27843.47483.39376.6567a1.52723,1.52723,0,0,0,.748.53654,2.67261,2.67261,0,0,0,2.35679-.2123c.38965-.25429.64916-.74723,1.19942-.81551.3773-.0494.51567.53243.68785.71511a2.71056,2.71056,0,0,0,1.48363.55136,2.66208,2.66208,0,0,0,1.67389-.38843c.28832-.18433.6277-.47894.80481-.437.09721.04937.15652.70279.75541,1.08049,1.3304.83859,3.58009.10782,4.595-.51431.52967-.37443.80069-.56783,1.20188-.89781.37561-.22715.68124.144.949.21642a2.20271,2.20271,0,0,0,.92344.01728,2.71837,2.71837,0,0,0,1.36827-.67974c.173-.18517.31059-.46659.52147-.52751a.4032.4032,0,0,1,.229.01978c.24547.19749.18038.91013.757,1.32.9391.65669,1.86008-.03128,2.47792-.47564a7.72331,7.72331,0,0,0,2.55449-3.23988c.25866-.553.57748-1.68207.76117-1.71993a4.18574,4.18574,0,0,1,.8452.44111,19.92893,19.92893,0,0,0,1.83207.80565.45016.45016,0,0,1,.25455.54148c-.15322.36207-.5536.53-.84439.74969a2.83839,2.83839,0,0,0-1.02477,1.49525c-.5099,1.75861,1.61461,2.58154,3.29016,2.296a6.63429,6.63429,0,0,0,2.34609-.79165c.26113-.16293.9943-.81058,1.295-.70525.31056.10863.38881.53162.54122.76778a2.10574,2.10574,0,0,0,1.01242.88135,3.738,3.738,0,0,0,3.75474-.76613c.33941-.24771.729-.77109.98111-.77933.42258-.01728.603,1.0517.86578,1.3743a2.55353,2.55353,0,0,0,2.2835.6855,5.77742,5.77742,0,0,0,1.93752-.59,9.85479,9.85479,0,0,0,4.00517-3.56163C75.6636,13.32932,76.25506,11.71391,75.87614,11.165Zm-6.77553-.55464a13.70451,13.70451,0,0,1,3.09492-4.07679,2.70586,2.70586,0,0,1,.91437-.57276c.92182-.05433.645,1.14141.34352,1.59811-.31221.38762-.60711.7933-.9119,1.20559-.56676.76944-1.00007,1.40885-1.59565,2.12811-.30728.353-.62854.70606-.90451,1.00891-.304.36785-1.02147,1.18666-1.63354,1.18831l-.03789-.02058A3.40905,3.40905,0,0,1,69.10061,10.61037ZM62.60519,10.138a20.128,20.128,0,0,1,1.20188-2.23424c.25867-.33.51733-.76616.78257-1.10438a7.49156,7.49156,0,0,1,.71668-.84021c.2043-.17775.35587-.36211.61865-.37938,1.25543.05844.47286,1.48785.17381,1.95859-.57662.88546-1.11456,1.79067-1.75873,2.68437-.29081.38266-.62938.74642-.92674,1.10684A3.49545,3.49545,0,0,1,62.143,12.47676a.16079.16079,0,0,1-.16722-.04113A3.31993,3.31993,0,0,1,62.60519,10.138ZM22.6424,12.72035A3.88468,3.88468,0,0,1,20.606,14.76369c-.31386.13907-1.00911.33329-1.31474.037-.39046-.3588-.13345-1.12331.056-1.50679a4.19321,4.19321,0,0,1,1.96549-1.89272,1.93534,1.93534,0,0,1,.77437-.209.63111.63111,0,0,1,.41928.09463C22.8681,11.509,22.80139,12.36567,22.6424,12.72035Zm8.6982.20738A6.83385,6.83385,0,0,1,28.88741,15.65a1.67977,1.67977,0,0,1-1.7357-.121c-.556-.44027-.09637-1.27389.173-1.65986A6.60938,6.60938,0,0,1,29.572,11.73942a2.75112,2.75112,0,0,1,1.047-.30778C31.62478,11.523,31.7805,12.06282,31.3406,12.92773Z"/>
  </g>
</svg>
