<svg xmlns="http://www.w3.org/2000/svg" width="570" height="59" fill="none" viewBox="0 0 570 59">
  <path fill="#000" stroke="#fff" stroke-miterlimit="100" stroke-width="1.8" d="M493.542 1H68.458v57h425.084V1Z" opacity=".26"/>
  <path fill="#fff" d="M122.682 41.387c-1.255.93-2.585 1.659-3.89 2.564-1.304.1-2.484.728-3.738.88-2.66.351-5.445.527-8.256.527-2.659 0-5.394-.1-8.054-.1-1.556 0-3.061 0-4.567.1-.2-.05-.427-.05-.678-.05-.777 0-1.655.251-2.433.251-.678 0-1.255-.251-1.606-1.156.1-.729.727-.779 1.455-.779.928 0 1.932.15 2.91.15 1.983 0 3.438-.627 3.438-4.372 0-1.458-.15-2.916-.15-4.424 0-1.105.15-2.086.15-3.166 0-.98-.05-2.036-.05-3.016 0-.578 0-1.156.1-1.71-.426-2.914-.05-6.106-1.254-8.594-.878-.98-2.133-1.106-3.438-1.106-.376 0-.878.05-1.355.05-.778 0-1.505-.15-1.505-1.055 0-.1 0-.252.05-.377l.527-.478c.627-.05 1.255-.05 1.882-.05 1.882 0 3.739.15 5.545.15.929 0 1.857-.1 2.76-.1.979 0 1.932.15 2.911.15 3.162 0 6.398-.426 9.61-.426 1.205 0 2.585.15 3.388.729 2.76 1.105 5.445 2.186 7.728 4.523 1.982 2.765 4.617 4.75 4.617 9.023 0 1.508-.301 3.066-.677 4.322-1.305 2.79-2.71 5.806-5.42 7.54Zm-1.983-19.955c-.828-1.985-2.81-3.116-4.617-4.121-1.505-.378-3.061-.528-4.617-.78-2.333.428-4.767-.1-6.95.679-1.807.251-2.133 3.393-2.133 4.8 0 .98.101 1.935.101 2.916 0 1.03-.101 2.136-.402 3.116.201 1.257.251 2.438.251 3.644 0 1.407-.1 2.765-.1 4.222 0 .83.301 1.609.301 2.388 0 .251-.05.477-.101.729.678 1.784.628 4.75 3.062 4.95 1.204.101 2.383.101 3.487.101 5.245 0 7.051-.829 10.338-2.438l.778-.351c2.233-3.494 3.162-7.716 3.162-12.14 0-.627 0-1.256-.05-1.884-1.205-1.835-.828-4.273-2.51-5.83Zm36.108 24.378c-.351.05-.627.05-.979.05-4.115 0-7.578-1.884-10.865-4.07-3.387-2.187-6.498-5.882-6.498-10.531 0-6.66 8.681-13.747 13.7-15.105 1.355-.05 2.71-.15 4.09-.15 1.204 0 2.384.1 3.588.377 5.596 2.186 12.671 8.293 12.671 15.054 0 .477-.1.88-.301 1.357-2.057 7.138-9.133 11.51-15.406 13.018Zm7.728-24.177c-2.283-3.744-5.972-4.85-9.811-4.85-1.505 0-2.609.88-4.115.88l-2.534 1.884c-2.585 1.936-2.861 4.951-3.789 7.766-.301.83-.351 1.71-.351 2.564 0 1.759.351 3.543.577 5.152l.376 1.03c.778 2.187 1.606 4.424 3.388 6.158 2.132 1.558 4.892 2.136 7.527 2.136 6.7 0 10.965-5.881 10.965-12.038 0-.528.151-.88.151-1.307 0-.1-.05-.252-.1-.352.05-3.594-.678-6.308-2.284-9.023Zm52.769-4.373c-3.061 0-4.768 2.815-4.768 5.63 0 1.03.352 2.036.352 3.116 0 .201-.051.427-.051.629.051 1.985.051 3.97.051 5.93 0 1.986 0 3.972-.051 5.882-1.932 5.051-6.649 8.243-11.692 8.243-3.338 0-6.55-.93-9.36-2.764-1.982-1.307-4.567-3.393-4.567-6.208 0-.251 0-.528.051-.78.2-3.342.426-6.71.426-10.002 0-.779-.05-1.508-.05-2.287.151-.477.201-.93.201-1.407 0-1.257-.427-2.564-.427-3.846 0-.2 0-.427.05-.628-.677-1.457-2.484-1.935-3.889-1.935-.477 0-1.029.201-1.505.201-.352 0-.929-.201-.929-.93 0-.427.427-.578.778-.678l10.815.2c.401-.301.828-.577 1.204-.577.301 0 .627.15.929.427l2.76.05c.15.05.301.1.476.1.251 0 .477-.05.678-.05.351 0 .627.1.778.528 0 .252-.151.528-.377.578-1.606.151-3.362.1-4.943.377-2.032 1.206-1.857 3.695-1.982 5.982 0 2.915-.1 5.83-.1 8.746 0 2.664.1 5.252.627 7.816.828 1.156 1.129 2.714 2.434 3.493 1.505 1.508 3.588 1.835 5.671 1.835.727 0 1.505-.05 2.233-.1 3.538-.202 6.85-3.117 8.255-6.66.151-1.207.201-2.439.201-3.645 0-1.458-.05-2.915-.05-4.323 0-.829 0-1.658.1-2.488-.05-.527-.05-1.106-.05-1.659v-2.664c0-.98 0-1.985-.201-2.965-1.029-.83-.677-2.388-2.032-2.966-1.406-.427-3.062-.477-4.567-.729a.864.864 0 0 1-.251-.578c0-.1.05-.25.151-.377l.476-.25 13.199-.152c.351.1.527.377.577.679.025 1.106-.803 1.206-1.631 1.206Zm44.614 19.754c0 2.287-.728 4.474-2.761 5.73-2.132 1.307-4.366 2.237-7 2.338l-1.983.301c-4.667-.1-9.183-.377-13.599-.377-2.434 0-4.818.201-7.127.201-.928 0-1.806-.15-1.806-.93 0-.1 0-.25.05-.377l.477-.351c1.028 0 2.183.1 3.262.1 1.304 0 2.534-.2 3.387-1.307.477-1.784.627-3.644.627-5.63 0-1.658-.1-3.392-.1-5.05 0-.981.05-2.037.151-3.017-.477-3.543.928-11.686-3.313-11.686-.828.15-1.756.251-2.609.251h-.276c-.527 0-1.355 0-1.355-.679 0-.829 1.104-.93 1.756-.93.301 0 .527.05.828.05 1.355 0 2.66-.2 4.04-.2 2.484 0 4.993.1 7.528.1 2.133 0 4.265-.2 6.348-.2 4.216 0 8.055 1.155 11.166 4.372.979 1.03.878 2.815.979 4.172-.929 4.072-5.094 4.65-8.155 5.68.426.528 1.355.251 1.882.528 1.882.93 3.839 1.307 5.595 2.563l1.932 2.715c.025.527.076 1.105.076 1.633Zm-6.173-13.496c0-2.664-1.857-5.68-4.165-6.258-1.807-.427-3.739-.678-5.621-.678-1.405 0-2.76.15-4.09.427-1.706.98-1.204 3.167-1.606 4.9-.301.629-.401 1.308-.401 1.986 0 1.156.251 2.287.251 3.494 0 .301.05 1.784.928 1.784.1 0 .251-.05.376-.15.778-.101 1.556-.101 2.434-.101 1.079 0 2.133.05 3.262.05 3.011 0 5.972-.377 7.904-2.966a4.573 4.573 0 0 0 .728-2.488Zm-.979 9.274c-1.982-2.187-4.993-2.237-7.954-2.237h-.376c-.879 0-1.757 0-2.535-.05-.2.1-.376.1-.577.1-.677 0-1.405-.351-1.982-.351-.376 0-.728.2-.979.829l.151 10.103c.151 1.056.878 2.136 1.832 2.664 1.355.151 2.76.201 4.165.201 3.889 0 10.288-.1 10.288-7.087 0-.88-.151-1.709-.477-2.438l-1.556-1.734Zm51.038 12.34c-.578 0-1.205-.1-1.807-.1-3.438 0-6.9.15-10.338.15-2.961 0-5.872-.1-8.782-.352-3.488.302-7.177.151-10.74.629-.828-.1-1.882-.252-1.882-1.358 0-.779.628-.93 1.205-.93.728 0 1.455.05 2.133.05 5.294 0 3.839-3.97 4.416-6.785.05-.88.05-1.709.05-2.614 0-4.071-.301-8.067-.301-12.139 0-1.507-.627-3.92-2.66-3.92-.778 0-1.606.1-2.384.1h-.15c-.778 0-1.757 0-1.757-1.156 0-.2.051-.427.201-.578l.577-.427c2.961.251 5.872.377 8.732.377 2.911 0 5.822-.1 8.833-.251.401.15.878.477.978.93 0 .377-.426.477-.727.527-2.484.151-5.395-.301-6.449 2.614-.201 1.458-.251 2.865-.251 4.273 0 2.387.151 4.75.151 7.087 0 1.056 0 2.136-.101 3.192.151.628.151 1.307.151 2.035v2.137c0 2.236.301 4.272 2.86 4.65 1.807.25 3.689.426 5.546.426 2.032 0 4.065-.2 5.972-.779 2.81-.83 5.445-4.121 5.921-7.137.251-.578.427-3.016 1.405-3.016.377 0 .527.477.578.779l.15 10.48c-.176.905-.803 1.106-1.53 1.106Zm43.835-10.254c0 .93.151 1.935.151 2.865 0 .478-.05.93-.151 1.407.101.83.151 1.66.151 2.514 0 .854-.05 1.658-.151 2.438-.677.678-1.706.728-2.71.728-.978 0-1.932.151-2.91.151-1.029 0-1.983-.05-2.961-.05-1.355 0-2.81.251-4.316.251-2.534 0-4.517-.251-6.7-.251-4.416 0-8.732.427-13.349.427-.476 0-1.129-.05-1.129-.779 0-1.106.929-1.156 1.857-1.156.627 0 1.305.05 1.982.05 2.384 0 3.89-.628 3.89-4.75 0-.678-.05-1.307-.301-1.885v-.251c.05-.478.1-.93.1-1.407 0-.98-.1-1.986-.1-2.966 0-1.458.301-2.865.301-4.272 0-1.936-.201-3.796-.201-5.73 0-.68 0-1.358.1-2.036-.376-.93-.326-2.237-1.405-2.865-.928-.101-1.857-.101-2.71-.101-.426 0-1.079.05-1.656.05-.828 0-1.556-.1-1.656-.678 0-1.156.527-1.257 1.455-1.257.778 0 1.933 0 2.71.201 1.556.15 3.162.201 4.768.201 5.495 0 10.237-.301 16.711-.301 1.255 0 2.534.05 3.639.301.301-.2.677-.251 1.079-.251.426 0 .878.1 1.204.2l.426.63a50.36 50.36 0 0 1 .151 3.845c0 1.658-.1 3.342-.1 5.051-.051.427-.427.578-.728.578-.677-.93-.677-2.136-.878-3.292-1.129-1.76-1.857-4.223-3.99-5.052-1.656-.427-3.437-.578-5.244-.578-1.907 0-3.839.15-5.646.201-.201 0-.351-.05-.527-.05-2.76 0-2.81 3.016-2.81 5.378l.05 6.736c.301.527.778.628 1.255.628.401 0 .727-.05 1.079-.05.2 0 .401 0 .527.05 2.233-.427 5.043.377 6.298-2.287.426-.93.351-2.186 1.079-2.966.401.05.426.528.577.88l-.101 4.373c.051 1.156.151 2.337.151 3.493v.78c0 1.156-.05 2.663-.627 2.663-.377 0-.728-2.035-.979-2.613-.376-2.765-3.889-3.242-6.499-3.242-.928 0-2.71 0-2.81.678 0 1.458-.05 2.966-.05 4.424 0 1.935.05 3.845.301 5.68.426 2.035 2.961 2.085 4.617 2.085 1.254 0 2.534-.1 3.789-.1.401.1.778.1 1.154.1 1.857 0 3.538-.678 5.395-.678 1.831-1.156 3.738-3.066 4.316-5.253.476-.83 1.204-4.473 1.856-4.473.151 0 .301.2.377.377a8.7 8.7 0 0 0-.101 1.206Zm73.144 10.455c-.778 0-1.606-.05-2.284-.05-1.756 0-3.538-.05-5.144-.252-1.505-.98-.978-3.166-1.605-4.75-.427-2.437-.251-5.328-1.933-7.238-1.555-1.784-3.738-2.035-6.022-2.035-1.028 0-2.082.05-3.161.05-.477 0-.979 0-1.456-.05-.326.729-.426 1.608-.426 2.513 0 .729.05 1.508.05 2.237.301 2.463-.251 5.529 1.982 7.037 1.556.678 3.262.728 4.944.728.526 0 1.078.428 1.078.93 0 .428-.351.629-.627.73a8.687 8.687 0 0 0-1.606-.152c-1.355 0-2.71.302-4.04.302-.677 0-1.355-.1-2.032-.377-3.638.427-7.427.427-11.015.528a1.504 1.504 0 0 1-.828-.88c0-.528.25-.98.677-1.106a20.3 20.3 0 0 0 1.756.05c1.255 0 2.485-.15 3.488-.779 1.029-1.206 1.205-2.613 1.205-4.121 0-.93-.101-1.885-.101-2.815 0-.729.05-1.508.251-2.287-.15-1.784-.251-3.493-.251-5.202 0-1.508.301-3.067.301-4.7 0-1.784-.727-3.292-.878-5.052-1.505-1.985-4.04-.93-6.122-1.608-.201-.201-.301-.528-.301-.78 0-.93.928-.98 1.606-1.055 2.082.151 4.215.201 6.298.201 3.638 0 7.327-.15 10.965-.15 2.484 0 4.943.1 7.377.301 1.706.93 3.839 1.206 4.818 3.443.677 1.106 1.154 2.614 1.154 4.072 0 .93-.251 1.885-.728 2.613-1.556 3.393-5.043 3.443-7.829 4.474 0 .578.628.352.979.578 2.961.678 4.893 3.97 5.671 6.836.627.779.351 2.036.728 2.915.526.83.878 2.086 1.932 2.438l3.738.427c.301.252.427.629.427.98 0 .201-.05.428-.151.578-.602.378-1.706.478-2.885.478Zm-7.653-22.67c0-1.658-1.305-2.965-2.133-4.322l-1.932-.88c-1.606-.15-3.488-.628-5.345-.628-1.706 0-3.312.377-4.416 1.659-.301 1.055-.402 2.136-.402 3.292 0 1.458.151 2.966.151 4.423 0 .83-.05 1.66-.201 2.438l.326.377c.678 0 1.506-.05 2.334-.05.828 0 1.706.05 2.484.201 1.807-.477 3.889-.427 5.721-1.03 1.706-.528 3.162-2.514 3.262-4.474.1-.327.151-.679.151-1.005Zm53.672 22.469c-.577 0-1.205-.1-1.807-.1-3.438 0-6.9.15-10.338.15-2.961 0-5.871-.1-8.782-.352-3.488.302-7.177.151-10.74.629-.828-.1-1.881-.252-1.881-1.358 0-.779.627-.93 1.204-.93.728 0 1.455.05 2.133.05 5.294 0 3.839-3.97 4.416-6.785.05-.88.05-1.709.05-2.614 0-4.071-.301-8.067-.301-12.139 0-1.507-.627-3.92-2.66-3.92-.778 0-1.606.1-2.383.1h-.151c-.778 0-1.756 0-1.756-1.156 0-.2.05-.427.2-.578l.577-.427c2.961.251 5.872.377 8.732.377 2.911 0 5.822-.1 8.833-.251.376.15.878.477.978.93 0 .377-.426.477-.727.527-2.484.151-5.395-.301-6.449 2.614-.201 1.458-.251 2.865-.251 4.273 0 2.387.151 4.75.151 7.087 0 1.056 0 2.136-.101 3.192.151.628.151 1.307.151 2.035v2.137c0 2.236.301 4.272 2.86 4.65 1.807.25 3.689.426 5.546.426 2.032 0 4.09-.2 5.972-.779 2.81-.83 5.445-4.121 5.921-7.137.251-.578.427-3.016 1.406-3.016.401 0 .527.477.577.779l.15 10.48c-.15.905-.803 1.106-1.53 1.106Z"/>
</svg>
