<svg xmlns="http://www.w3.org/2000/svg" width="570" height="135" fill="none" viewBox="0 0 570 135">
  <path fill="#fff" fill-rule="evenodd" d="M348.177 113.843v6.236H337.69V93.846h5.338v-4.381h-14.664v4.381h4.483v26.233h-4.483v4.376h24.119l.184-10.612h-4.49Zm21.699 3.096c0 1.017-.358 2.882-2.759 3.947l-.007.003c-.964.457-2.445.578-3.092.578-3.749 0-5.427-2.275-5.427-4.528 0-2.735 2.01-4.304 5.517-4.304 3.449 0 5.768 1.73 5.768 4.304Zm3.864 3.604v-9.162c0-3.026 0-6.793-3.974-8.289-1.849-.739-3.463-1.054-5.403-1.054-3.722 0-6.394 1.008-7.371 1.442l-.324.144 1.6 3.588.302-.146c2.265-1.102 4.41-1.494 5.663-1.494 5.014 0 5.691 2.412 5.691 4.773 0 .336-.015.644-.034.945-1.605-1.413-3.676-2.103-6.309-2.103-6.259 0-9.059 3.93-9.059 7.826 0 4.727 3.709 7.901 9.23 7.901 1.021 0 4.219-.183 5.994-2.337v1.617h7.566v-3.651h-3.572Zm23.616-.544v-18.051h-7.905v3.533h3.831v11.022c-1.51 1.983-4.063 3.95-6.443 3.95-.976 0-1.739-.312-2.271-.927-.658-.763-.953-2.012-.832-3.547v-14.031h-7.557v3.533h3.443l.046 12.558c0 3.104 2.162 6.246 6.291 6.246 2.936 0 5.853-2.03 7.278-3.41v2.758h8.126v-3.634h-4.007Zm21.269-17.401a7.401 7.401 0 0 0-2.596-.47c-2.273 0-4.178 1.072-5.676 3.188v-2.824h-7.822v3.448h3.877v14.517h-3.877v3.636h7.96l4.09.105v-3.644h-4.098v-10.048c1.662-3.005 3.193-4.289 5.109-4.289.789 0 1.489.147 2.083.437l.377.185.854-4.136-.281-.105Zm15.988 8.501h-7.163l-1.529-.043-3.447.029c.936-3.626 3.905-5.518 6.458-5.518 2.966 0 4.876 1.86 5.681 5.532Zm4.399 3.825.009-.351c.108-3.948-.969-7.278-3.113-9.629a9.693 9.693 0 0 0-7.242-3.194c-5.907 0-10.533 5.132-10.533 11.681 0 7.276 5.584 11.2 10.838 11.2 4.148 0 7.334-1.973 9.737-6.033l.206-.347-3.241-1.569-.153.281c-.488.906-2.374 3.858-6.073 3.858-3.433 0-6.29-2.443-7.076-5.992h4.639l12.002.095Zm22.066 5.983v-11.229c0-1.746 0-4.136-2.135-5.826-1.077-.871-2.46-1.37-3.792-1.37-.709 0-4.252.172-7.642 3.399v-3.127h-7.65v3.463h3.617v14.69h-3.531v3.549h11.419v-3.549h-3.815V110.09c.952-1.154 3.278-3.873 6.374-3.873 3.084 0 3.084 2.595 3.084 4.491v10.199h-3.636v3.549H465v-3.549h-3.922ZM212.129 95.526v-1.828h5.082c4.233 0 6.379 1.8 6.379 5.35 0 2.865-1.723 4.123-2.258 4.446-1.483.947-3.061.947-6.205.947h-2.954v-6.73l-.044-2.185Zm15.321 24.585-.036-2.958c0-2.384 0-6.825-1.707-8.804a5.13 5.13 0 0 0-2.312-1.427c3.877-.916 4.951-5.434 4.951-8.158 0-4.023-2.04-6.692-3.952-7.849-1.951-1.17-3.247-1.322-5.576-1.51l-5.986-.09h-9.669v4.334h4.271v26.462h-4.315v4.382h13.235v-4.382h-4.267v-11.324c.755-.061 1.504-.061 2.232-.061 6.429 0 8.507.86 8.507 11.09v4.677h9.027v-4.382h-4.403Zm18.637.625-.004.002c-.975.454-2.452.575-3.096.575-3.749 0-5.427-2.281-5.427-4.54 0-2.731 2.01-4.297 5.515-4.297 3.454 0 5.776 1.727 5.776 4.297 0 1.019-.359 2.888-2.764 3.963Zm6.622-.348v-9.167c0-3.026 0-6.794-3.971-8.279-1.828-.741-3.444-1.058-5.402-1.058-3.683 0-6.38 1.001-7.369 1.43l-.329.144 1.606 3.588.3-.146c2.246-1.091 4.397-1.478 5.661-1.478 5.011 0 5.686 2.408 5.686 4.763 0 .339-.013.648-.031.948-1.613-1.416-3.684-2.106-6.31-2.106-6.258 0-9.059 3.928-9.059 7.822 0 4.731 3.712 7.91 9.235 7.91 1.02 0 4.211-.183 5.989-2.338v1.613h7.567v-3.646h-3.573Zm12.55 0v-31.44h-7.694V92.5h3.709v27.887h-3.666v3.55h11.574v-3.55h-3.923Z" clip-rule="evenodd"/>
  <path fill="#fff" fill-rule="evenodd" d="M289.244 113.19c0 4.95-3.303 7.62-6.41 7.62-2.221 0-3.357-1.055-4.559-2.171l-.006-.006c-1.311-1.206-1.975-3.083-1.975-5.581 0-4.561 3.508-7.384 6.758-7.384 3.876 0 6.192 3.825 6.192 7.522Zm-5.886-11.354c-3.555 0-5.881 2.045-7.02 3.378v-3.101h-7.508v3.459h3.483v18.01l-.04 4.105h-3.487v3.651h11.467v-3.651h-3.869v-6.431c1.753 2.108 4.323 3.386 6.886 3.386 5.681 0 10.304-5.388 10.304-12.011 0-6.668-5.303-10.795-10.216-10.795Zm31.683 19.071-.036-9.98c0-2.954 0-5.745-2.689-7.446-1.313-.871-2.503-.989-3.493-.989-3.24 0-5.494 1.851-7.308 3.55V89.278h-7.604v3.56h3.574v9.821l-.085 18.248h-3.535v3.549h11.494v-3.549h-3.799v-10.931c1.476-1.839 3.845-3.764 6.17-3.764.442 0 1.478 0 2.307.89.692.665.719.943.882 4.376l.011 9.429h-3.621v3.549h11.655v-3.549h-3.923Zm-155.233-7.529c0 4.429-2.816 7.769-6.55 7.769-1.19 0-4.13-.374-5.717-3.842l-.01-.017c-.538-1.026-.823-2.265-.823-3.58 0-4.564 3.474-7.63 6.72-7.63 3.171 0 6.38 2.507 6.38 7.3Zm-6.034-11.126c-1.027 0-4.426.253-6.847 3.368l.039-16.567h-7.711v3.646h3.617v27.999l-3.627-.054.112 3.677 4.978-.047h2.59v-2.453c2.667 2.896 5.788 3.227 7.07 3.227 5.592 0 10.14-5.36 10.14-11.948 0-6.186-4.454-10.848-10.361-10.848Zm26.093 2.835v3.629h3.62l-4.619 11.665-5.279-11.665h3.709v-3.629h-11.14v3.629h2.91l7.703 16.588c-1.379 3.545-3.813 4.808-5.496 4.808-.761 0-1.408-.059-1.978-.181l-.365-.078-.368 4.231.3.06c.488.1.993.151 1.456.151 6.809 0 9.093-5.633 11.108-10.605l6.101-14.974h3.122v-3.629h-10.784ZM105 78.705h228.999V0H105v78.705Zm6.259-6.662h216.483V6.664H111.259v65.379Z" clip-rule="evenodd"/>
  <path fill="#fff" fill-rule="evenodd" d="M261.298 61.445h-26.471v-6.44h7.553V22.262h-7.553v-6.258h18.767v39.001h7.704v6.44Zm-54.727-5.067c-5.898 0-10.207-5.045-10.214-10.438-.013-4.357 3.819-10.048 10.439-10.048 6.167 0 10.259 5.302 10.289 10.374.026 4.031-3.039 10.112-10.514 10.112Zm-.038-27.143c-11.421 0-19.712 6.996-19.712 16.636 0 8.102 6.952 16.715 19.834 16.715 6.61 0 12.257-2.155 15.903-6.07a15.486 15.486 0 0 0 4.163-10.725c-.072-9.284-8.941-16.555-20.188-16.555Zm83.5 27.143c-5.898 0-10.206-5.045-10.214-10.438-.012-4.357 3.819-10.048 10.44-10.048 6.166 0 10.259 5.302 10.289 10.374.025 4.031-3.039 10.112-10.515 10.112Zm-.037-27.143c-11.422 0-19.713 6.996-19.713 16.636 0 8.102 6.952 16.715 19.835 16.715 6.609 0 12.257-2.155 15.902-6.07a15.482 15.482 0 0 0 4.163-10.725c-.072-9.284-8.94-16.555-20.187-16.555Zm-131.768 8.899h-13.301l.04-15.311h13.326c7.106 0 9.87 2.078 9.838 7.757-.044 8.11-4.176 7.554-9.903 7.554Zm9.068-20.341c-4.115-.823-6.781-.823-10.744-.823h-31.935v5.967h8.609l-.035 32.326h-8.656v6.016h29.613l.083-.485.02-5.462h-9.279l.03-9.274 9.582.138c10.147 0 14.176.55 18.695-2.904 3.312-2.42 6.233-6.023 6.274-11.634.06-9.335-8.14-13.037-12.257-13.866Z" clip-rule="evenodd"/>
</svg>
