<svg xmlns="http://www.w3.org/2000/svg" width="570" height="86" fill="none" viewBox="0 0 570 86">
  <path fill="#fff" d="M284 72v14h12v-2.1h-9.9V72H284Z"/>
  <path fill="#fff" fill-rule="evenodd" d="M317.5 72h3l7.5 14h-2.6l-1.6-3.1h-9.6l-1.6 3.1H310l7.5-14Zm1.6 2-3.7 6.8h7.3l-3.6-6.8Z" clip-rule="evenodd"/>
  <path fill="#fff" d="M356 80.3c0 1.4-.7 2.5-2.1 3.4-1.4.8-3.3 1.3-5.6 1.3s-4.2-.5-5.7-1.4c-1.4-.8-2.1-2-2.1-3.3v-9.1h2.3v8.6c0 1.1.5 1.9 1.4 2.4.9.5 2.3.8 4.1.8 1.8 0 3.1-.3 4.1-.8.9-.6 1.4-1.4 1.4-2.4v-8.6h2.3l-.1 9.1Z"/>
  <path fill="#fff" fill-rule="evenodd" d="M385 79.2c-.6.7-1.5 1.1-2.5 1.3l3.7 5.4h-2.6l-3.6-5.3h-6.7v5.3h-2.2v-14h10.4c1.4 0 2.5.4 3.3 1.2.8.8 1.2 1.9 1.2 3.2 0 1.2-.4 2.2-1 2.9Zm-11.8-5.1v4.5h7.9c1.7 0 2.5-.8 2.5-2.2 0-1.5-.9-2.3-2.7-2.3h-7.7Z" clip-rule="evenodd"/>
  <path fill="#fff" d="M403 72v14h14v-2.1h-11.8v-4.1h7.8v-2.1h-7.8v-3.6h11.3V72H403Zm42.8 0v11.5L435.7 72H433v14h2.2V74.5L445.3 86h2.7V72h-2.2Z"/>
  <path fill="#fff" fill-rule="evenodd" d="M136 79.2c-.6.7-1.5 1.1-2.5 1.3L137 86h-2.5l-3.6-5.4h-6.7v5.3H122v-14h10.5c1.4 0 2.5.4 3.3 1.2.8.8 1.2 1.9 1.2 3.2 0 1.2-.4 2.2-1 2.9Zm-11.8-5.1v4.5h7.9c1.7 0 2.5-.8 2.5-2.2 0-1.5-.9-2.3-2.7-2.3h-7.7Zm33.3-2.1h3l7.5 14h-2.6l-1.6-3.1h-9.6l-1.6 3.1H150l7.5-14Zm1.6 2-3.7 6.8h7.3l-3.6-6.8Z" clip-rule="evenodd"/>
  <path fill="#fff" d="M184 72v14h12v-2.1h-9.9V72H184Z"/>
  <path fill="#fff" fill-rule="evenodd" d="M220.6 72c1.3 0 2.4.4 3.2 1.2.8.8 1.2 1.8 1.1 3.2 0 1.4-.4 2.5-1.2 3.2-.8.7-2 1.1-3.6 1.1h-7.9V86H210V72h10.6Zm-8.4 6.6h8c1.7 0 2.5-.7 2.5-2.2 0-1.5-.9-2.3-2.7-2.3h-7.8v4.5Z" clip-rule="evenodd"/>
  <path fill="#fff" d="M252.8 72v5.7h-10.6V72H240v14h2.2v-6.2h10.6V86h2.2V72h-2.2Zm-121-34.9-.4 15.3H88v-1.8h1.5c2.2 0 3.7-.3 4.5-.8.8-.6 1.4-1.4 1.6-2.6.2-1.2.4-4 .4-8.3V13.4c0-4.1-.1-6.8-.4-8-.2-1.2-.7-2-1.5-2.5s-2.4-.7-5-.7H88V.4h24.5v1.8h-2.3c-2.5 0-4.2.2-4.9.6-.8.4-1.3 1.2-1.6 2.4-.2 1.1-.3 3.8-.3 8.2v27.3c0 3.8.1 6.1.3 7.1.2.9.7 1.7 1.6 2.2.9.5 2.8.8 5.7.8h3.9c3.1 0 5.5-.3 7-.8 1.5-.6 3-1.8 4.3-3.7 1.4-1.9 2.6-4.9 3.8-9h1.8v-.2Z"/>
  <path fill="#fff" fill-rule="evenodd" d="M164.9 33.7h19.5l4 9.7c1.1 2.8 1.7 4.4 1.7 5 0 1.1-.4 1.8-1.3 2.2-.8.4-2.5.6-5 .6V53h20.1v-1.8c-1.8-.1-3.1-.6-4-1.3-.9-.7-1.6-1.7-2.1-2.9l-2.3-5.5L178.3 0h-1.5l-14.9 36.3c-1.1 2.6-1.7 4.1-1.8 4.5-1.5 4-2.9 6.7-4 8-1.1 1.2-2.8 2-5.1 2.4V53h15.2v-1.8c-1.6 0-2.9-.4-4-1.2-1.1-.8-1.6-2-1.6-3.6 0-1.5 1-4.6 3-9.4l1.3-3.3Zm9.8-24 9.1 22.3h-18.1l9-22.3Z" clip-rule="evenodd"/>
  <path fill="#fff" d="M255.7 1H273v1.8c-2.3.2-4 .7-5.1 1.6-1.1.9-1.8 1.9-2.1 3-.3 1.1-.4 3.2-.4 6.4V31c0 4.4-.2 7.7-.5 9.9s-1.3 4.3-3 6.3c-1.6 2.1-4 3.7-6.9 5-3 1.2-6.4 1.8-10.3 1.8-4.6 0-8.5-.8-11.7-2.4-3.2-1.6-5.5-3.6-6.8-6.1-1.4-2.5-2-5.8-2-10V14c0-4.1-.1-6.8-.4-8-.2-1.2-.7-2-1.5-2.5s-2.5-.7-5.1-.7H216V1h23.6v1.8h-1c-2.5 0-4.2.2-5 .6-.8.4-1.3 1.2-1.6 2.4-.3 1.1-.4 3.9-.4 8.2v16.4c0 5.7.3 9.7.8 12.1.5 2.4 2 4.5 4.4 6.2 2.4 1.8 5.6 2.7 9.7 2.7 3.2 0 6-.6 8.6-1.8 2.6-1.2 4.5-2.7 5.8-4.4 1.3-1.8 2-3.6 2.3-5.5.3-1.9.4-4.8.4-8.9V13c0-2.9-.2-5-.5-6.2-.3-1.2-1-2.1-2.1-2.8-1.1-.7-2.8-1.1-5.2-1.3V1h-.1Z"/>
  <path fill="#fff" fill-rule="evenodd" d="M331.9 52.5h13.8v-1.8c-3.1-.1-5.7-1-7.9-2.6-2.3-1.6-5.3-5.1-9.2-10.3-4.8-6.4-8.3-10.2-10.4-11.2 4.8-.5 8.4-2 10.9-4.4 2.5-2.4 3.7-5.2 3.7-8.6 0-2.8-.9-5.3-2.8-7.4-1.9-2.1-4.3-3.6-7.4-4.5-3-.9-7-1.4-11.9-1.4-2.8 0-6.7.1-11.6.3l-7.3.4v1.7h.8c2.6 0 4.3.2 5.1.7.8.5 1.3 1.3 1.5 2.5.2 1.2.3 3.8.3 7.9v25.4c0 4.3-.1 7-.3 8.2-.2 1.2-.8 2-1.6 2.6-.8.5-2.3.8-4.5.8h-1.7v1.8H316v-1.8h-2.5c-2.3 0-3.9-.3-4.7-.9-.8-.6-1.3-1.5-1.5-2.8-.2-1.3-.3-3.9-.3-8V27.7h2c1.4 0 2.4.2 3.1.7.7.5 1.9 1.8 3.6 3.9 1.7 2.1 3.4 4.4 5 6.7 5 7.2 8.8 11.8 11.2 13.5Zm-19.548-26.774c-1.885.09-3.619.174-5.352.174l.1-23.5c1.2-.1 2.3-.1 3.2-.1 6.1 0 10 1.1 11.8 3.3 1.8 2.2 2.7 5.1 2.7 8.7 0 2-.3 3.8-.8 5.2-.6 1.4-1.3 2.5-2.2 3.4-.9.9-2.1 1.5-3.6 2-1.5.4-3.3.7-5.3.8l-.548.026Z" clip-rule="evenodd"/>
  <path fill="#fff" d="M404.2 36.8h1.8L404.9 53H362v-1.8h1.1c2.6 0 4.2-.3 5-1 .8-.7 1.2-1.6 1.4-2.6.2-1.1.3-3.8.3-8.1V14c0-4-.1-6.6-.3-7.8-.2-1.2-.7-2.1-1.5-2.6s-2.4-.7-4.9-.7V1h37l1.2 13h-1.8c-.8-3.6-1.8-6.2-3-7.7s-2.6-2.5-4.2-2.9c-1.6-.4-4.3-.6-7.9-.6h-7.2v21.8h5.5c2.5 0 4.3-.2 5.3-.7 1-.4 1.7-1.1 2-2 .3-.9.5-2.6.5-5.2h1.8v17.8h-1.8c0-2.9-.2-4.8-.7-5.8-.5-1-1.2-1.6-2.1-1.9-.9-.3-2.5-.4-4.7-.4h-5.7v12.3c0 6.2.4 9.8 1.2 10.9.8 1.1 2.9 1.6 6.4 1.6h3.9c2.7 0 5-.4 6.7-1.1 1.8-.7 3.4-2.1 5-4.3 1.5-2.1 2.7-5.1 3.7-9Zm68 17.2L435.3 5.4v36c0 3 .1 4.9.4 5.9.3.9 1.1 1.8 2.5 2.6s3.5 1.2 6.2 1.2v1.8h-19.5v-1.8c2.5-.2 4.4-.6 5.7-1.4 1.3-.7 2.1-1.5 2.3-2.4.2-.8.4-2.8.4-6V13.9c0-4-.2-6.6-.6-8-.4-1.4-1-2.2-1.8-2.6-.8-.4-2.6-.6-5.4-.6V1h15.4l30.9 40.5v-31c0-2.3-.2-3.9-.7-4.8-.5-.9-1.5-1.6-2.9-2.2-1.5-.5-3.2-.8-5.3-.8V1h18.9v1.8c-2.2.2-3.9.6-5.2 1.3-1.3.7-2.1 1.5-2.4 2.4-.3.9-.5 2.5-.5 4.7V54h-1.5Z"/>
</svg>
