<svg xmlns="http://www.w3.org/2000/svg" width="570" height="80" fill="none" viewBox="0 0 570 80">
  <path fill="#fff" d="m362.609 65.3-4.045.01v12.013h-16.417l.01-12.013h-4.045v12.013c0 1.512.94 2.667 2.687 2.667l18.909.01c1.727 0 2.922-.879 2.922-2.677l-.021-12.024Zm65.392 14.68 4.045-.011V67.955h16.427l-.01 12.014h4.045V67.955c0-1.512-.939-2.666-2.686-2.666h-21.821v14.69Zm-37.543-5.906c2.196-.572 3.003-2.82 3.034-4.341.031-1.614-.848-3.137-1.88-3.821-1.032-.684-2.554-.613-2.952-.613h-19.512v14.63h4.055v-5.262h13.301l2.82 5.312h4.331l-3.197-5.905Zm-1.849-2.319c-.511.286-1.093.215-1.43.215l-13.965.01v-4.035l14.169.01c.46 0 .868.02 1.348.347.338.246.787.92.787 1.635.01.603-.296 1.471-.909 1.818Zm-55.401-2.431c0-1.113-.572-2.36-1.45-3.064-1.052-.859-1.584-.96-3.004-.96h-20.053l.01 14.68h4.056l.01-5.292h16.355v5.291h4.066V69.324h.01Zm-4.076 2.677-16.345-.01-.01-4.015h14.486c.184 0 .49-.041.797.112.459.225 1.083.807 1.083 1.614.01.736-.011 2.299-.011 2.299Zm-45.797 5.312-.01-12.024-4.046.01v12.065c0 1.675.93 2.615 2.493 2.615h22.025v-2.656l-20.462-.01Zm139.742-6.027-20.463.01v-3.33h20.463v-2.667h-21.341c-1.9 0-3.167.766-3.167 2.748l.01 9.49c0 1.39 1.226 2.453 2.442 2.453h22.045l.011-2.656h-20.452l-.011-3.32h20.463v-2.728Zm-284.265 2.788c2.196-.572 3.003-2.82 3.034-4.341.03-1.614-.848-3.137-1.88-3.821-1.032-.684-2.554-.613-2.952-.613h-19.502v14.63h4.055v-5.262h13.291l2.83 5.312h4.331l-3.207-5.905Zm-1.86-2.319c-.5.286-1.093.215-1.43.215l-13.965.01v-4.035l14.17.01c.459 0 .868.02 1.348.347.337.246.787.92.787 1.635.01.603-.297 1.471-.91 1.818Zm89.062 2.974c3.075 0 4.219-3.126 4.25-4.648.03-1.625-.848-3.464-2.023-4.189-1.063-.654-2.442-.582-2.84-.582h-19.645V80h4.086v-5.282l16.172.01Zm-.674-2.953c-.501.286-1.104.215-1.441.215l-14.067.01v-4.056l14.271.01c.46 0 .879.021 1.359.348.337.245.797.92.797 1.634 0 .624-.307 1.492-.919 1.84Zm-53.909-2.452c0-1.246-.572-2.36-1.451-3.064-1.062-.859-1.594-.96-3.014-.96h-20.053l.01 14.68h4.056l.01-5.292h16.366v5.291h4.066V69.324h.01Zm-4.066 2.677-16.345-.01-.011-4.015h14.486c.184 0 .491-.041.797.112.45.225 1.083.879 1.083 1.614 0 .736-.01 2.299-.01 2.299Zm13.025 5.312c-.01-.02-.01-12.024-.01-12.024l-4.046.01v12.065c0 1.675.93 2.615 2.493 2.615h22.015v-2.656l-20.452-.01ZM255.507 65.3v6.711h-16.284V65.3h-4.066v14.68h4.066v-5.281h16.284v5.281h4.168V65.3h-4.168ZM453.489.01l-27.807.225-30.658 18.327L364.356.235 336.569.01l44.899 26.663-44.99 27.195 26.438-.02 32.108-19.125 32.201 19.124h26.908l-45.522-27.174L453.489.01Z"/>
  <path fill="#fff" d="M356.526 41.773h-98.291c-.021-.02-.245-41.752-.225-41.752h-19.584l.154 44.193c0 5.353 3.238 9.654 8.581 9.654h89.367l19.998-12.096ZM115.867 53.582h19.195V35.704h62.869l13.403 18.164h20.554l-15.089-20.36c10.073-2.38 14.997-8.776 14.997-15.569 0-5.854-3.361-10.45-7.754-13.27C216.605 0 206.624 0 198.462 0h-82.595v53.582Zm92.882-40.455c1.216.603 3.545 1.686 3.545 4.873 0 2.667-1.144 4.015-4.924 5.22-2.636.93-5.772.93-12.668.93l-59.64-.02V11.84h60.672c4.72 0 10.052-.092 13.015 1.287Z"/>
</svg>
