<svg xmlns="http://www.w3.org/2000/svg" width="570" height="173" fill="none" viewBox="0 0 570 173">
  <g clip-path="url(#a)">
    <path fill="#fff" d="M260.838 46.534c6.052-6.738 14.029-9.886 22.024-9.886 17.327 0 29.179 11.392 29.179 28.278 0 18.536-13.479 31.462-31.934 31.462-23.822 0-32.892-20.476-32.892-43.26C247.188 29.07 255.444.242 284.632.242c15.159 0 23.416 7.55 23.416 13.737 0 3.554-2.611 6.188-6.604 6.188-3.306 0-6.206-2.607-6.206-6.188 0-3.842 2.755-5.493 2.755-7.405S293.729.82 284.632.82c-19.124 0-23.126 20.043-23.822 45.74m.028.93v8.939c0 18.392 4.001 39.553 19.53 39.553 13.217 0 17.878-12.637 17.878-29.811 0-15.524-3.017-28.161-16.224-28.161-7.968 0-14.581 2.345-21.184 9.48Zm71.005-19.835c-17.878 0-18.023 1.1-18.312 6.188l-.144 2.75h-.407V18.058h57.527v1.913L353.84 52.1c-8.808 17.03-9.91 31.723-9.91 51.901 0 3.698-2.755 6.449-6.866 6.449-3.451 0-6.314-2.751-6.314-6.449 0-20.584 13.361-35.305 22.286-52.046l13.072-24.436-34.283.145h.027l-.009-.01Z"/>
    <path fill="#fff" d="m247.616 114.397-23.901-34.983h-15.118v34.983h-17.882V18.184h38.756c19.885 0 34.278 10.723 34.278 29.42 0 15.558-10.378 24.978-20.728 28.556l26.81 38.264h-22.188l-.027-.027Zm-24.635-33.105L226.878 87h-9.217v34.984H197.92l-7.214-5.708h19.74V81.292h12.535Zm42.626 30.975-25.94-37.258c12.245-3.424 21.898-12.997 21.898-27.406 0-17.258-13.405-27.262-32.131-27.262h-36.571v91.953h13.55V77.31h18.435l23.901 34.984h16.867v-.027h-.009Zm-25.351-89.5.435.72-.435.719h-40.179l-4.767.575-.725-1.294.725-.72h44.955-.009Zm-40.179 3.83h48.962l.435.719-.435.72h-48.962l-4.767.574-.725-1.294.725-1.294 4.767.575Zm0 3.865h53.584l.435.72-.435.718h-53.584l-4.767.575-.725-1.294.725-1.294 4.767.575Zm0 4h3.898l.435.719-.435.72h-3.898l-4.767.574-.725-1.294.725-1.294 4.767.575Zm0 3.865h3.898l.435.72-.435.718h-3.898l-4.767.575-.725-1.294.725-1.294 4.767.575Zm0 3.83h3.898l.435.718-.435.72h-3.898l-4.767.575-.725-1.295.725-1.294 4.767.575Zm0 4.008h3.898l.435.72-.435.718h-3.898l-4.767.575-.725-1.294.725-1.294 4.767.575Zm0 3.856h3.898l.435.72-.435.718h-3.898l-4.767.72-.725-1.439.725-1.294 4.767.575Zm0 3.865h3.898l.435.72-.435.718h-3.898l-4.767.576-.725-1.295.725-1.294 4.767.575Zm0 3.973h3.898l.435.72-.435.718h-3.898l-4.767.576-.725-1.295.725-1.15 4.767.431Zm0 3.721h3.898l.435.72-.435.719h-3.898l-4.767.575-.725-1.294.725-1.151 4.767.431Zm0 4.01h51.146l.435.718-.435.72h-51.146l-4.767.575-.725-1.295.725-1.294 4.767.575Zm0 4h45.246l.435.718-.435.72h-45.246l-4.767.575-.725-1.295.725-1.294 4.767.575Zm0 3.864h37.741l.435.72-.435.718h-37.741l-4.767.576-.725-1.295.725-1.294 4.767.575Zm0 3.83h3.898l.435.718-.435.72h-3.898l-4.767.575-.725-1.294.725-1.295 4.767.575Zm0 4.008h3.898l.435.72-.435.719h-3.898l-4.767.575-.725-1.295.725-1.294 4.767.575Zm0 3.856h3.898l.435.72-.435.719h-3.898l-4.767.575-.725-1.294.725-1.295 4.767.575Zm0 3.865h3.898l.435.72-.435.719h-3.898l-4.767.575-.725-1.294.725-1.295 4.767.575Zm0 3.974h3.898l.435.719-.435.719h-3.898L195.31 95l-.725-1.294.725-1.295 4.767.576Zm0 3.865h3.898l.435.719-.435.719h-3.898l-4.767.719-.725-1.438.725-1.295 4.767.576Zm0 3.856h3.898l.435.719-.435.719h-3.898l-4.767.575-.725-1.294.725-1.295 4.767.576Zm0 3.865h3.898l.435.719-.435.719h-3.898l-4.767.575-.725-1.294.725-1.295 4.767.576Zm0 3.829h3.898l.435.719-.435.719h-8.638l-.725-.719.725-1.294 4.768.575h-.028Zm28.224-45.383h-21.897v-28.7h22.767c11.366 0 17.711 4.44 17.711 13.428 0 10.283-6.481 15.272-18.581 15.272Zm.879-26.418h-20.583v24.26h19.741c10.812 0 16.432-4.296 16.432-13.141 0-7.577-5.465-11.119-15.553-11.119m-18.762 1.87h18.58c8.058 0 11.801 2.13 13.26 5.995-1.305-.144-2.592-.288-4.042-.288H217.67v14.84h-7.215V38.472Zm17.556 40.25-.435-.719.435-.719h11.221l.435.72-.435.719h-11.221Zm2.592 4.01-.435-.72.435-.719h11.366l.435.72-.435.719h-11.366Zm2.765 3.829-.435-.72.435-.719h11.366l.435.72-.435.719h-11.366Zm2.583 3.865-.435-.72.435-.718h11.366l.435.719-.435.719h-11.366Zm2.882 4-.435-.72.435-.718h11.221l.435.719-.435.719h-11.221Zm1.133-31.406-.435-.576 1.16-.719h14.13l.435.72-.435.575h-14.855Zm1.74-27.11-1.16-.719.435-.72h15.408l.435.72-.435.72h-14.683Zm-.435 62.38-.435-.718.435-.72h11.511l.435.72-.435.719h-11.511Zm2.738 3.83-.436-.719.436-.719h11.655l.435.719-.435.719h-11.655Zm1.305-42.813-.435-.719.435-.719h11.655l.435.72-.435.718h-11.655Zm10.785 62.669-7.214-5.708h24.335L245.857 77.14c10.668-4.44 19.741-12.135 19.741-29.42 0-5.852-1.45-12.71-4.74-17.285 6.625 4.989 11.946 13.717 11.946 24.692 0 12.422-8.493 21.554-17.158 25.995l28.813 40.835h-28.378v.027l.018-.009Zm-9.797-82.237-.435-.719.435-.719h11.655l.435.72-.435.718h-11.655Zm.145 66.246-.435-.719.435-.719h11.8l.435.719-.435.719h-11.8Zm1.604-50.687-.435-.719.435-.719h10.233l.435.72-.435.718h-10.233Zm.58-11.694-.435-.719.435-.719h10.233l.435.72-.435.718h-10.233Zm.58 7.865-.435-.719.435-.719h9.798l.435.72-.435.718h-9.798Zm0 58.381-.435-.719.435-.719h11.656l.435.719-.435.719h-11.656Zm.118-62.246-.435-.719.435-.719h9.798l.435.72-.435.718h-9.798Zm54.395 66.803V18.184h17.89v77.955h48.793v18.267h-66.683Zm7.228 7.578-7.228-5.709h68.545V96.13l7.228 5.708v20.146h-68.545Zm57.303-9.709V98.27h-48.794V20.314h-13.576v91.961h62.37Zm-51.246-89.507.436.72-.436.718h-3.904l-4.75.576-.726-1.295.726-.719h8.654Zm-3.904 3.83h3.904l.436.719-.436.719h-3.904l-4.75.575-.726-1.294.726-1.295 4.75.576Zm0 3.865h3.904l.436.72-.436.718h-3.904l-4.75.576-.726-1.295.726-1.294 4.75.575Zm0 4h3.904l.436.72-.436.719h-3.904l-4.75.575-.726-1.294.726-1.295 4.75.575Zm0 3.866h3.904l.436.719-.436.719h-3.904l-4.75.575-.726-1.294.726-1.295 4.75.576Zm0 3.83h3.904l.436.718-.436.72h-3.904l-4.75.575-.726-1.295.726-1.294 4.75.575Zm0 4.008h3.904l.436.72-.436.719h-3.904l-4.75.575-.726-1.294.726-1.295 4.75.575Zm0 3.857h3.904l.436.719-.436.72h-3.904l-4.75.718-.726-1.438.726-1.294 4.75.575Zm0 3.865h3.904l.436.72-.436.719h-3.904l-4.75.575-.726-1.295.726-1.294 4.75.575Zm0 3.974h3.904l.436.719-.436.719h-3.904l-4.75.575-.726-1.294.726-1.15 4.75.43Zm0 3.865h3.904l.436.72-.436.718h-3.904l-4.75.576-.726-1.295.726-1.294 4.75.575Zm0 3.865h3.904l.436.72-.436.719h-3.904l-4.75.575-.726-1.294.726-1.295 4.75.575Zm0 4h3.904l.436.72-.436.719h-3.904l-4.75.575-.726-1.294.726-1.295 4.75.576Zm0 3.866h3.904l.436.72-.436.718h-3.904l-4.75.576-.726-1.295.726-1.294 4.75.575Zm0 3.83h3.904l.436.719-.436.719h-3.904l-4.75.575-.726-1.294.726-1.295 4.75.576Zm0 4.009h3.904l.436.719-.436.72h-3.904l-4.75.574-.726-1.294.726-1.294 4.75.575Zm0 3.856h3.904l.436.72-.436.719h-3.904l-4.75.575-.726-1.295.726-1.294 4.75.575Zm0 3.866h3.904l.436.719-.436.719h-3.904l-4.75.575-.726-1.294.726-1.295 4.75.576Zm0 3.973h3.904l.436.72-.436.718h-3.904l-4.75.576-.726-1.295.726-1.294 4.75.575Zm0 3.865h3.904l.436.72-.436.719h-3.904l-4.75.719-.726-1.439.726-1.294 4.75.575Zm0 3.857h52.816l.436.719-.436.719h-52.816l-4.75.575-.726-1.294.726-1.295 4.75.576Zm0 3.865h52.816l.436.719-.436.72h-52.816l-4.75.575-.726-1.295.726-1.294 4.75.575Zm0 3.83h52.816l.436.719-.436.719h-57.593l-.727-.719.727-1.295 4.749.576h.028Zm17.599-14.123h-7.229V18.184l7.229 5.708v70.404-.009Zm-136.1 62.361v-.487h1.366v-14.318h-1.366v-.487h6.562c3.801 0 5.114 1.763 5.114 3.695 0 2.126-1.711 3.606-4.97 3.801l5.368 7.3h1.104v.487h-3.602l-5.721-7.779h-.09v7.301h1.711v.487h-5.522.046Zm3.774-8.115h1.339c2.698 0 4.01-1.276 4.01-3.465 0-1.532-.787-3.207-3.276-3.207h-2.064v6.672h-.009Zm10.943 8.115v-.478h1.303l5.223-14.964h1.448l4.969 14.964h.896v.478h-5.023v-.478h1.683l-1.855-5.653h-4.761l-1.973 5.653h2.181v.478h-4.091Zm4.064-6.618h4.444l-2.182-6.503-2.289 6.503h.027Zm17.106 6.14h3.34c1.485 0 1.919-.257 3.286-5.653h.498v6.131h-10.889v-.487h1.367v-14.318h-1.367v-.487h6.037v.487H230.5v14.318l-.009.009Zm11.414.478v-.487h1.367v-14.318h-1.367v-.487h6.471c3.603 0 5.522 1.675 5.522 4.005s-1.802 3.863-5.522 3.863h-2.697v6.928h2.091v.487h-5.865v.009Zm3.774-7.894h2.118c2.435 0 3.512-.735 3.512-3.375 0-2.074-.959-3.527-3.313-3.527h-2.326v6.902h.009Zm15.65.23v7.186h1.484v.487h-5.286v-.487h1.367v-14.318h-1.367v-.487h5.286v.487h-1.484v6.619h5.982v-6.619h-1.484v-.487h5.286v.487h-1.367v14.318h1.367v.487h-5.286v-.487h1.484v-7.186h-5.982Zm26.248 7.186h3.34c1.484 0 1.919-.257 3.285-5.653h.498v6.131h-10.888v-.487h1.366v-14.318h-1.366v-.487h6.037v.487h-2.263v14.318l-.009.009Zm10.101.478v-.478h1.303l5.223-14.964h1.448l4.969 14.964h.896v.478h-5.023v-.478h1.683l-1.855-5.653h-4.761l-1.973 5.653h2.181v.478h-4.091Zm4.064-6.618h4.444l-2.181-6.503-2.29 6.503h.027Zm17.776-8.656v.478h-1.629v11.111c0 2.702 1.566 3.552 2.987 3.552 2.145 0 3.657-1.417 3.657-3.721v-10.959h-2.037v-.488h4.01v.488h-1.367v10.959c0 2.561-1.738 4.173-4.381 4.173-3.656 0-5.313-1.506-5.313-4.545v-10.596h-1.366v-.488h5.43v.027l.009.009Zm10.916 15.274v-.487h1.367v-14.318h-1.367v-.487h6.562c3.801 0 5.114 1.763 5.114 3.695 0 2.126-1.711 3.606-4.969 3.801l5.376 7.3h1.104v.487h-3.602l-5.72-7.779h-.091v7.301h1.711v.487h-5.521.036Zm3.774-8.115h1.34c2.697 0 4.009-1.276 4.009-3.465 0-1.532-.787-3.207-3.285-3.207h-2.064v6.672Zm12.255 8.115v-.487h1.367v-14.318h-1.367v-.487h11.468v4.917h-.498c-1.221-4.119-1.565-4.403-2.697-4.403h-4.471v6.618h1.774c1.131 0 1.683-.682 2.118-3.039h.498v6.592h-.498c-.462-2.357-.987-3.039-2.118-3.039h-1.774v7.185h3.973c1.593 0 2.091-.593 3.395-5.165h.497v5.653h-11.676v-.027h.009Zm18.175-14.397v13.919h1.892v.487h-4.01v-.487h1.485v-14.318h-1.485v-.487h4.327l6.679 11.075v-10.597h-1.801v-.487h3.919v.487h-1.484v14.796h-.751l-8.771-14.397v.009Zm-136.735 21.901 2.733 5.848 2.761-5.848h1.629l-4.417 9.091-4.326-9.091h1.629-.009Zm18.437 0v8.435h-1.485v-8.435h1.485Zm11.006 8.462v-9.029l7.169 6.45v-5.883h1.484v8.949l-7.169-6.415v5.91h-1.484v.026-.008Zm22.356-7.274v7.247h-1.484v-7.247h-2.263v-1.196h6.01v1.196h-2.263Zm17.424 5.2h-4.209l-1.104 2.047h-1.593l4.878-8.975 4.707 8.975h-1.629l-1.041-2.047h-.009Zm-.58-1.196-1.448-2.87-1.538 2.87h2.986Zm17.714-1.134h4.063v.284c0 .629-.09 1.196-.262 1.674-.172.452-.462.877-.869 1.276-.896.877-2.091 1.338-3.485 1.338-1.393 0-2.552-.425-3.539-1.276-.986-.85-1.484-1.878-1.484-3.092 0-1.214.498-2.268 1.512-3.127.986-.851 2.208-1.276 3.656-1.276a5.94 5.94 0 0 1 2.145.398c.643.257 1.277.709 1.883 1.312l-1.041.877c-.814-.913-1.801-1.391-2.96-1.391-1.04 0-1.918.31-2.615.939-.697.594-1.041 1.364-1.041 2.268 0 .904.407 1.701 1.185 2.33.725.567 1.539.851 2.381.851.724 0 1.394-.195 1.973-.629.579-.426.896-.94.987-1.533h-2.471v-1.196l-.028-.027h.01Zm20.003-2.87h-3.947v2.02h3.829v1.196h-3.829v2.808h3.947v1.196h-5.431v-8.434h5.431v1.223-.009Z"/>
  </g>
  <defs>
    <clipPath id="a">
      <path fill="#fff" d="M190.5 0h189v173h-189z"/>
    </clipPath>
  </defs>
</svg>
