<svg xmlns="http://www.w3.org/2000/svg" width="570" height="73" fill="none" viewBox="0 0 570 73">
  <path fill="#fff" d="M166.086 73c-4.166 0-8.105-2.309-8.105-6.876 0-4.366 3.663-6.95 7.778-6.95 2.534 0 4.768.877 6.75 2.433l-1.179 1.858c-1.807-1.255-3.287-2.059-5.546-2.059-2.81 0-5.596 1.632-5.596 4.718 0 3.238 2.987 4.643 5.847 4.643 2.134 0 3.89-.628 5.647-1.833l.979 2.033C170.628 72.373 168.57 73 166.086 73Zm28.438-13.826c4.09 0 7.904 2.434 7.904 6.85 0 4.467-3.99 6.977-8.105 6.977-4.04 0-7.83-2.51-7.83-6.85v-.353c.001-4.392 4.066-6.624 8.031-6.624Zm-.026 2.258c-2.836 0-5.772 1.505-5.772 4.692 0 3.136 2.811 4.617 5.622 4.617s5.847-1.505 5.847-4.692c-.001-3.187-2.862-4.617-5.697-4.618Zm23.946 11.116V59.549h2.209v10.79h7.929v2.209h-10.138Zm24.196 0V59.549h2.209v10.79h7.929v2.209H242.64Zm24.32 0V59.549h11.442v2.209h-9.234v2.986h5.069v2.209h-5.069v3.387h9.485v2.208H266.96Zm33.557.452c-4.165 0-8.105-2.309-8.105-6.876 0-4.366 3.663-6.95 7.779-6.95 2.534 0 4.767.877 6.75 2.433l-1.179 1.858c-1.806-1.255-3.287-2.059-5.545-2.059-2.81 0-5.595 1.632-5.595 4.718 0 3.238 2.985 4.643 5.846 4.643 2.132 0 3.889-.628 5.646-1.833l.979 2.033c-2.034 1.406-4.092 2.033-6.576 2.033Zm26.681-11.242v10.79h-2.234v-10.79h-4.918v-2.209h12.17v2.209h-5.018Zm20.155 10.79V59.524h2.209v13.024h-2.209Zm26.278-13.374c4.09 0 7.904 2.434 7.904 6.85 0 4.467-3.99 6.977-8.104 6.977-4.04 0-7.83-2.51-7.83-6.85v-.353c0-4.392 4.066-6.624 8.03-6.624Zm-.025 2.258c-2.835 0-5.772 1.505-5.772 4.692 0 3.136 2.812 4.617 5.622 4.617 2.811 0 5.847-1.505 5.847-4.692-.001-3.187-2.862-4.617-5.697-4.618Zm34.285 11.116-8.13-9.662v9.662h-2.208V59.549h2.234l8.104 9.636V59.55h2.209v12.999h-2.209ZM293.174 31.316h6.836c3.048 0 3.925-.555 6.697-11.825h1.016v12.841h-22.308v-1.016h2.771V1.386h-2.771V.37h12.378v1.016h-4.619v29.93Zm53.111 0h1.848v1.016h-10.254v-1.016h3.418l-3.788-11.825h-9.746l-4.017 11.825h4.433v1.016h-8.406v-1.016h2.68L333.169 0h2.955l10.161 31.316Zm-18.197-12.84h9.098l-4.387-13.534h-.092l-4.619 13.534ZM368.775.37v1.016h-3.325v23.233c0 5.635 3.187 7.436 6.096 7.436 4.387 0 7.483-2.956 7.483-7.76V1.385h-4.158V.37h8.221v1.016h-2.771v22.956c0 5.358-3.557 8.73-8.961 8.73-7.482 0-10.9-3.141-10.9-9.517V1.385h-2.772V.369h11.087Zm40.687 0c7.76 0 10.485 3.695 10.485 7.714 0 4.479-3.51 7.574-10.161 7.99l10.992 15.242h2.264v1.017h-7.344l-11.733-16.26h-.184v15.243h3.51v1.017h-11.269v-1.017h2.77V1.386h-2.77V.37h13.44Zm-5.681 14.965h2.724c5.497 0 8.177-2.679 8.177-7.252 0-3.232-1.617-6.698-6.698-6.698h-4.203v13.95Zm31.172 16.997v-1.016h2.771V1.386h-2.771V.37h23.463v10.253H457.4c-2.494-8.637-3.234-9.237-5.543-9.237h-9.145v13.857h3.602c2.31 0 3.419-1.432 4.342-6.375h1.016v13.764h-1.016c-.923-4.942-2.032-6.375-4.342-6.375h-3.602v15.058h8.129c3.28 0 4.249-1.248 6.975-10.809h1.016V32.33h-23.879v.002ZM476.609 2.31h-.092v29.006h3.879v1.016h-8.22v-1.016h3.048V1.386h-3.048V.37h8.868l13.578 23.093h.093V1.385h-3.696V.369h8.037v1.016h-3.048V32.33h-1.57L476.609 2.31ZM84.385.37c7.76 0 10.485 3.695 10.485 7.714 0 4.479-3.511 7.574-10.162 7.99L95.7 31.316h2.263v1.017h-7.344l-11.732-16.26h-.184v15.243h3.51v1.017H70.945v-1.017h2.77V1.386h-2.77V.37h13.441Zm-5.682 14.965h2.725c5.497 0 8.176-2.679 8.176-7.252 0-3.232-1.617-6.698-6.698-6.698h-4.203v13.95Zm56.436 15.981h1.848v1.016h-10.254v-1.016h3.418l-3.787-11.825h-9.747L112.6 31.316h4.434v1.016h-8.406v-1.016h2.679L122.022 0h2.956l10.161 31.316Zm-18.197-12.84h9.099l-4.388-13.534h-.092l-4.619 13.534Zm40.318 12.84h6.836c3.049 0 3.926-.555 6.697-11.825h1.016v12.841H149.5v-1.016h2.771V1.386H149.5V.37h12.379v1.016h-4.619v29.93ZM198.732.37c7.344 0 11.316 3.51 11.316 8.36s-3.696 8.083-11.271 8.083h-5.543v14.503h4.249v1.017h-12.008v-1.017h2.771V1.386h-2.771V.37h13.257Zm-5.497 15.426h4.341c4.989 0 7.206-1.524 7.206-7.066 0-4.341-1.987-7.345-6.79-7.345h-4.757v14.411Zm35.745.463v15.057h3.048v1.016H221.22v-1.016h2.771V1.386h-2.771V.37h10.808v1.016h-3.048v13.857h12.239V1.386h-3.049V.37h10.809v1.016h-2.771v29.93h2.771v1.016H238.17v-1.016h3.049V16.26H228.98Z"/>
</svg>
