<svg xmlns="http://www.w3.org/2000/svg" width="570" height="135" fill="none" viewBox="0 0 570 135">
  <g clip-path="url(#a)">
    <path fill="#fff" d="M266.186 36.313c4.713-5.258 10.924-7.715 17.149-7.715 13.491 0 22.72 8.89 22.72 22.067 0 14.464-10.495 24.551-24.865 24.551-18.549 0-25.611-15.978-25.611-33.758-.021-18.773 6.408-41.269 29.135-41.269 11.803 0 18.232 5.892 18.232 10.72 0 2.774-2.033 4.83-5.142 4.83-2.574 0-4.832-2.035-4.832-4.83 0-2.998 2.145-4.286 2.145-5.778 0-1.493-3.32-4.491-10.403-4.491-14.891 0-18.007 15.64-18.549 35.694m.021.725v6.975c0 14.352 3.116 30.865 15.208 30.865 10.291 0 13.92-9.861 13.92-23.263 0-12.114-2.349-21.975-12.633-21.975-6.204 0-11.353 1.83-16.495 7.398Zm55.288-15.479c-13.921 0-14.033.86-14.258 4.829l-.113 2.147h-.316V14.09h44.792v1.492l-12.978 25.073c-6.858 13.289-7.716 24.755-7.716 40.5 0 2.887-2.145 5.033-5.346 5.033-2.687 0-4.917-2.146-4.917-5.032 0-16.063 10.404-27.55 17.353-40.614l10.179-19.068-26.694.112h.021l-.007-.007Z"/>
    <path fill="#fff" d="m255.891 89.27-18.609-27.3H225.51v27.3h-13.924V14.19h30.177c15.483 0 26.69 8.367 26.69 22.957 0 12.142-8.08 19.492-16.14 22.284l20.876 29.86h-17.276l-.022-.022ZM236.71 63.435l3.035 4.454h-7.178v27.3h-15.37l-5.618-4.455h15.371V63.436h9.76Zm33.19 24.171-20.198-29.074c9.535-2.672 17.051-10.142 17.051-21.386 0-13.467-10.438-21.274-25.018-21.274h-28.476v71.755h10.55v-27.3h14.355l18.61 27.3h13.133v-.02h-.007Zm-19.739-69.84.339.56-.339.562h-31.285l-3.712.449-.564-1.01.564-.561h35.004-.007Zm-31.285 2.988h38.123l.339.56-.339.562h-38.123l-3.712.449-.564-1.01.564-1.01 3.712.449Zm0 3.016h41.723l.338.561-.338.561h-41.723l-3.712.449-.564-1.01.564-1.01 3.712.449Zm0 3.121h3.035l.339.561-.339.561h-3.035l-3.712.45-.564-1.01.564-1.01 3.712.448Zm0 3.016h3.035l.339.561-.339.562h-3.035l-3.712.449-.564-1.01.564-1.01 3.712.448Zm0 2.988h3.035l.339.562-.339.56h-3.035l-3.712.45-.564-1.01.564-1.01 3.712.448Zm0 3.129h3.035l.339.56-.339.562h-3.035l-3.712.449-.564-1.01.564-1.01 3.712.449Zm0 3.009h3.035l.339.56-.339.562h-3.035l-3.712.561-.564-1.122.564-1.01 3.712.449Zm0 3.016h3.035l.339.561-.339.561h-3.035l-3.712.449-.564-1.01.564-1.01 3.712.449Zm0 3.1h3.035l.339.561-.339.561h-3.035l-3.712.45-.564-1.01.564-.899 3.712.337Zm0 2.904h3.035l.339.561-.339.561h-3.035l-3.712.45-.564-1.01.564-.899 3.712.337Zm0 3.128H258.7l.339.561-.339.562h-39.824l-3.712.449-.564-1.01.564-1.01 3.712.448Zm0 3.122h35.23l.339.56-.339.562h-35.23l-3.712.449-.564-1.01.564-1.01 3.712.449Zm0 3.016h29.387l.338.56-.338.562h-29.387l-3.712.449-.564-1.01.564-1.01 3.712.449Zm0 2.988h3.035l.339.561-.339.561h-3.035l-3.712.449-.564-1.01.564-1.01 3.712.449Zm0 3.128h3.035l.339.561-.339.561h-3.035l-3.712.45-.564-1.01.564-1.01 3.712.448Zm0 3.01h3.035l.339.56-.339.561h-3.035l-3.712.45-.564-1.01.564-1.01 3.712.448Zm0 3.015h3.035l.339.561-.339.562h-3.035l-3.712.448-.564-1.01.564-1.01 3.712.45Zm0 3.1h3.035l.339.562-.339.56h-3.035l-3.712.45-.564-1.01.564-1.01 3.712.449Zm0 3.017h3.035l.339.56-.339.562h-3.035l-3.712.561-.564-1.122.564-1.01 3.712.449Zm0 3.009h3.035l.339.561-.339.561h-3.035l-3.712.449-.564-1.01.564-1.01 3.712.449Zm0 3.016h3.035l.339.561-.339.561h-3.035l-3.712.45-.564-1.01.564-1.011 3.712.449Zm0 2.988h3.035l.339.561-.339.561h-6.726l-.564-.56.564-1.01 3.712.448h-.021Zm21.976-35.415h-17.05V26.78h17.728c8.85 0 13.79 3.465 13.79 10.48 0 8.023-5.046 11.916-14.468 11.916Zm.685-20.614H225.51v18.93h15.371c8.419 0 12.794-3.352 12.794-10.254 0-5.913-4.255-8.676-12.11-8.676m-14.608 1.458h14.467c6.274 0 9.189 1.663 10.325 4.679-1.016-.112-2.019-.224-3.148-.224h-16.027v11.58h-5.617V30.02Zm13.67 31.41-.339-.561.339-.561h8.737l.338.561-.338.561h-8.737Zm2.018 3.128-.339-.56.339-.562h8.85l.339.561-.339.561h-8.85Zm2.152 2.988-.338-.56.338-.562h8.85l.339.561-.339.561h-8.85Zm2.012 3.017L246.47 70l.339-.56h8.85l.338.56-.338.562h-8.85Zm2.244 3.12-.339-.56.339-.561h8.737l.339.56-.339.562h-8.737Zm.882-24.507-.339-.449.904-.56h11.002l.339.56-.339.45h-11.567Zm1.355-21.155-.903-.56.339-.562h11.997l.339.561-.339.561H251.29Zm-.339 48.679-.338-.561.338-.561h8.963l.339.56-.339.562h-8.963Zm2.132 2.988-.339-.561.339-.561h9.075l.339.56-.339.562h-9.075Zm1.016-33.409-.339-.56.339-.562h9.076l.338.561-.338.561h-9.076Zm8.398 48.903-5.618-4.454h18.949l-21.306-30.532c8.307-3.465 15.371-9.47 15.371-22.958 0-4.566-1.129-9.918-3.691-13.488 5.159 3.893 9.302 10.703 9.302 19.268 0 9.693-6.613 16.82-13.36 20.285l22.435 31.865h-22.096v.021l.014-.007Zm-7.629-64.172-.339-.562.339-.56h9.076l.339.56-.339.561h-9.076Zm.113 51.694-.339-.561.339-.561h9.189l.338.561-.338.561h-9.189Zm1.249-39.553-.339-.561.339-.561h7.968l.339.561-.339.561h-7.968Zm.452-9.125-.339-.562.339-.56h7.967l.339.56-.339.562h-7.967Zm.452 6.137-.339-.561.339-.561h7.628l.339.56-.339.562h-7.628Zm0 45.557-.339-.56.339-.562h9.075l.339.561-.339.561h-9.075Zm.091-48.573-.338-.561.338-.561h7.629l.339.56-.339.562h-7.629Zm42.354 52.13V14.189h13.93v60.833h37.992v14.254h-51.922Zm5.629 5.913-5.629-4.454h53.372v-15.72l5.628 4.454v15.72h-53.371Zm44.617-7.575v-10.93h-37.992V15.852h-10.571v71.761h48.563Zm-39.901-69.847.339.561-.339.561h-3.041l-3.698.45-.565-1.01.565-.562h6.739Zm-3.041 2.988h3.041l.339.562-.339.56h-3.041l-3.698.45-.565-1.01.565-1.01 3.698.448Zm0 3.017h3.041l.339.56-.339.562h-3.041l-3.698.449-.565-1.01.565-1.01 3.698.449Zm0 3.121h3.041l.339.561-.339.562h-3.041l-3.698.449-.565-1.01.565-1.01 3.698.448Zm0 3.017h3.041l.339.56-.339.562h-3.041l-3.698.449-.565-1.01.565-1.01 3.698.449Zm0 2.988h3.041l.339.561-.339.561h-3.041l-3.698.45-.565-1.01.565-1.011 3.698.449Zm0 3.129h3.041l.339.56-.339.562h-3.041l-3.698.449-.565-1.01.565-1.01 3.698.449Zm0 3.009h3.041l.339.561-.339.561h-3.041l-3.698.561-.565-1.122.565-1.01 3.698.449Zm0 3.016h3.041l.339.562-.339.56h-3.041l-3.698.45-.565-1.01.565-1.01 3.698.448Zm0 3.1h3.041l.339.562-.339.561h-3.041l-3.698.45-.565-1.011.565-.898 3.698.337Zm0 3.017h3.041l.339.561-.339.562h-3.041l-3.698.448-.565-1.01.565-1.01 3.698.45Zm0 3.017h3.041l.339.56-.339.562h-3.041l-3.698.449-.565-1.01.565-1.01 3.698.449Zm0 3.121h3.041l.339.561-.339.561h-3.041l-3.698.45-.565-1.01.565-1.01 3.698.448Zm0 3.017h3.041l.339.56-.339.562h-3.041l-3.698.449-.565-1.01.565-1.01 3.698.449Zm0 2.988h3.041l.339.561-.339.561h-3.041l-3.698.45-.565-1.011.565-1.01 3.698.449Zm0 3.128h3.041l.339.562-.339.56h-3.041l-3.698.45-.565-1.01.565-1.01 3.698.448Zm0 3.01h3.041l.339.561-.339.561h-3.041l-3.698.45-.565-1.011.565-1.01 3.698.449Zm0 3.016h3.041l.339.561-.339.561h-3.041l-3.698.45-.565-1.01.565-1.01 3.698.448Zm0 3.1h3.041l.339.562-.339.561h-3.041l-3.698.449-.565-1.01.565-1.01 3.698.449Zm0 3.017h3.041l.339.561-.339.561h-3.041l-3.698.562-.565-1.123.565-1.01 3.698.45Zm0 3.01h41.125l.339.56-.339.562h-41.125l-3.698.449-.565-1.01.565-1.01 3.698.448Zm0 3.016h41.125l.339.561-.339.561h-41.125l-3.698.45-.565-1.011.565-1.01 3.698.449Zm0 2.988h41.125l.339.561-.339.561h-44.844l-.566-.56.566-1.01 3.698.448h.021Zm13.704-11.02h-5.629V14.19l5.629 4.454v54.94-.007ZM214.614 122.24v-.38h1.065v-11.173h-1.065v-.38h5.11c2.96 0 3.982 1.376 3.982 2.883 0 1.659-1.332 2.814-3.869 2.966l4.179 5.697h.86v.38h-2.805l-4.454-6.07h-.071v5.697h1.332v.38h-4.299.035Zm2.939-6.333h1.043c2.1 0 3.122-.995 3.122-2.703 0-1.196-.613-2.503-2.551-2.503h-1.607v5.206h-.007Zm8.521 6.333v-.373h1.014l4.067-11.678h1.128l3.869 11.678h.697v.373h-3.911v-.373h1.311l-1.445-4.411h-3.707l-1.536 4.411h1.698v.373h-3.185Zm3.164-5.164h3.46L231 112.001l-1.783 5.075h.021Zm13.32 4.791h2.6c1.156 0 1.494-.201 2.559-4.411h.387v4.784h-8.478v-.38h1.064v-11.173h-1.064v-.38h4.701v.38h-1.762v11.173l-.007.007Zm8.887.373v-.38h1.064v-11.173h-1.064v-.38h5.039c2.805 0 4.299 1.307 4.299 3.125s-1.403 3.014-4.299 3.014h-2.1v5.407h1.628v.38h-4.567v.007Zm2.939-6.16h1.649c1.895 0 2.734-.574 2.734-2.634 0-1.618-.747-2.752-2.579-2.752h-1.811v5.386h.007Zm12.185.18v5.607h1.156v.38h-4.116v-.38h1.064v-11.173h-1.064v-.38h4.116v.38h-1.156v5.165h4.658v-5.165h-1.156v-.38h4.116v.38h-1.064v11.173h1.064v.38h-4.116v-.38h1.156v-5.607h-4.658Zm20.438 5.607h2.6c1.156 0 1.494-.201 2.558-4.411h.388v4.784h-8.478v-.38h1.064v-11.173h-1.064v-.38h4.701v.38h-1.762v11.173l-.007.007Zm7.865.373v-.373h1.014l4.067-11.678h1.128l3.869 11.678h.697v.373h-3.911v-.373h1.311l-1.445-4.411h-3.707l-1.536 4.411h1.698v.373h-3.185Zm3.164-5.164h3.46l-1.698-5.075-1.783 5.075h.021Zm13.841-6.755v.373h-1.268v8.67c0 2.109 1.219 2.772 2.325 2.772 1.671 0 2.848-1.106 2.848-2.903v-8.553h-1.586v-.38h3.122v.38h-1.064v8.553c0 1.998-1.353 3.256-3.411 3.256-2.847 0-4.137-1.175-4.137-3.547v-8.269h-1.064v-.38h4.228v.021l.007.007Zm8.5 11.919v-.38h1.064v-11.173h-1.064v-.38h5.109c2.96 0 3.982 1.376 3.982 2.883 0 1.659-1.332 2.814-3.869 2.966l4.186 5.697h.86v.38h-2.805l-4.454-6.07h-.07v5.697h1.331v.38h-4.299.029Zm2.939-6.333h1.043c2.1 0 3.122-.995 3.122-2.703 0-1.196-.614-2.503-2.559-2.503h-1.606v5.206Zm9.542 6.333v-.38h1.064v-11.173h-1.064v-.38h8.929v3.837h-.388c-.951-3.215-1.219-3.436-2.1-3.436h-3.481v5.165h1.381c.881 0 1.311-.533 1.649-2.372h.388v5.144h-.388c-.359-1.839-.768-2.371-1.649-2.371h-1.381v5.607h3.094c1.24 0 1.628-.464 2.643-4.031h.387v4.411h-9.091v-.021h.007Zm14.151-11.235v10.862h1.473v.38h-3.122v-.38h1.156v-11.173h-1.156v-.38h3.369l5.201 8.642v-8.269h-1.402v-.38h3.051v.38h-1.156v11.546h-.585l-6.829-11.235v.007Zm-106.467 17.091 2.129 4.563 2.149-4.563h1.269l-3.44 7.093-3.368-7.093h1.268-.007Zm14.356 0v6.582h-1.156v-6.582h1.156Zm8.57 6.603v-7.045l5.581 5.033v-4.591h1.156v6.983l-5.581-5.006v4.612h-1.156v.02-.006Zm17.407-5.677v5.656h-1.156v-5.656h-1.761v-.933h4.679v.933h-1.762Zm13.567 4.059h-3.277l-.86 1.597h-1.241l3.799-7.004 3.665 7.004h-1.269l-.81-1.597h-.007Zm-.451-.934-1.128-2.24-1.198 2.24h2.326Zm13.792-.885h3.164v.222c0 .491-.07.933-.204 1.306-.134.353-.36.685-.677.996-.698.684-1.628 1.044-2.713 1.044-1.085 0-1.988-.332-2.756-.996-.768-.663-1.156-1.465-1.156-2.413 0-.947.388-1.769 1.177-2.44.769-.664 1.72-.996 2.848-.996.585 0 1.155.111 1.67.311.5.201.994.554 1.466 1.024l-.811.684c-.634-.712-1.402-1.085-2.304-1.085-.811 0-1.494.242-2.037.733a2.234 2.234 0 0 0-.81 1.769c0 .706.317 1.328.923 1.819.564.442 1.198.664 1.853.664.564 0 1.086-.153 1.537-.491.451-.332.697-.733.768-1.196h-1.924v-.934l-.021-.021h.007Zm15.575-2.24h-3.073v1.577h2.981v.933h-2.981v2.192h3.073v.933h-4.229v-6.582h4.229v.954-.007Z"/>
  </g>
  <defs>
    <clipPath id="a">
      <path fill="#fff" d="M211.419 0h147.162v135H211.419z"/>
    </clipPath>
  </defs>
</svg>
