<svg xmlns="http://www.w3.org/2000/svg" width="570" height="74" fill="none" viewBox="0 0 570 74">
  <path fill="#fff" d="M319.858 73.073V60.126h2.199v10.748h7.898v2.199h-10.097Zm37.021 0h-2.599l-1.65-3.025h-7.898l-1.6 3.025h-2.499l6.998-12.947h2.199l7.049 12.947Zm-10.998-5.2h5.65l-2.826-5.273-2.824 5.274Zm33.199-7.747c2.374 0 4.273.875 4.273 3.524 0 1-.175 1.45-.75 2.273.975.9 1.4 1.8 1.4 3.124.001 1.126-.425 2.225-1.249 3.001-1.024.975-2.324 1.025-3.674 1.025h-8.198V60.126h8.198Zm-5.949 10.748h5.949c1.399 0 1.774-.126 2.174-.526.325-.324.525-.8.526-1.273 0-.525-.201-1.025-.601-1.376-.374-.324-.624-.4-1.999-.4h-6.049v3.575Zm0-5.775h5.949c.999 0 2.075-.125 2.075-1.375a1.394 1.394 0 0 0-.451-1.023c-.3-.275-.5-.375-1.624-.375h-5.949v2.773Zm26.076 7.974V60.126h11.396v2.2h-9.197v2.973h5.049v2.2h-5.049v3.375h9.447v2.199h-11.646Zm26.75 0V60.126h2.199v10.748h7.898v2.199h-10.097ZM145.53 60.126c1.625 0 1.976.125 2.725.575 1.224.725 1.849 2.224 1.849 3.6.001 1.174-.399 2.299-1.299 3.098-1.049.925-1.649.975-3.974.975h-5.024v4.699h-2.2V60.126h7.923Zm-5.722 6.048h5.024c2.324 0 3.074-.3 3.074-1.874 0-1.6-.875-1.974-2.825-1.974h-5.273v3.848Zm36.997 4.949c-1.125 1.724-3.549 2.323-5.474 2.323-1.774 0-3.624-.4-4.949-1.648-1.274-1.225-1.35-2.7-1.35-4.374v-7.3h2.225v7.3c0 1.773.175 2.198.575 2.648.825.925 2.5 1.15 3.649 1.15 1.2 0 2.774-.3 3.5-1.35.3-.425.425-.85.425-2.45v-7.298h2.199v7.298c0 2.05-.15 2.7-.8 3.7Zm25.775-10.997c2.625 0 4.924.825 4.924 3.824 0 2.2-1.35 3.498-3.474 3.773l3.774 5.35h-2.724l-3.749-5.3h-4.524v5.3h-2.225V60.126h7.998Zm-5.773 5.449h5.999c1.225 0 2.5-.25 2.5-1.726-.001-1.099-.527-1.523-2.625-1.523h-5.874v3.249Zm33.523-5.449c1.625 0 1.975.125 2.724.575 1.225.725 1.85 2.224 1.85 3.6 0 1.174-.399 2.299-1.299 3.098-1.05.925-1.649.975-3.974.975h-5.024v4.699h-2.2V60.126h7.923Zm-5.722 6.048h5.024c2.324 0 3.074-.3 3.074-1.874-.001-1.6-.876-1.974-2.825-1.974h-5.273v3.848Zm25.274 6.899V60.126h2.2v10.748h7.898v2.199h-10.098Zm24.225 0V60.126h11.397v2.2h-9.197v2.973h5.049v2.2h-5.049v3.375h9.447v2.199h-11.647Zm19.598-41.069h6.809c3.036 0 3.91-.553 6.671-11.778h1.012v12.79h-22.22v-1.012h2.76V2.192h-2.76V1.18h12.329v1.012h-4.601v29.812Zm52.901 0h1.84v1.012h-10.213v-1.012h3.404l-3.772-11.778h-9.707l-4.002 11.778h4.416v1.012h-8.373v-1.012h2.669L333.541.812h2.944l10.121 31.192Zm-18.125-12.79h9.062l-4.37-13.48h-.092l-4.6 13.48ZM369.007 1.18v1.012h-3.312v23.141c0 5.613 3.174 7.407 6.072 7.407 4.37 0 7.453-2.944 7.453-7.729V2.192h-4.141V1.18h8.188v1.012h-2.76v22.865c0 5.337-3.543 8.695-8.925 8.695-7.453 0-10.857-3.128-10.857-9.478V2.192h-2.761V1.18h11.043Zm40.526 0c7.728 0 10.443 3.68 10.443 7.683 0 4.462-3.496 7.545-10.121 7.959l10.949 15.182h2.255v1.012h-7.315l-11.686-16.194h-.184v15.182h3.496v1.012h-11.224v-1.012h2.76V2.192h-2.76V1.18h13.387Zm-5.659 14.906h2.714c5.475 0 8.144-2.668 8.144-7.223 0-3.22-1.61-6.671-6.671-6.671h-4.187v13.894Zm31.049 16.93v-1.012h2.76V2.192h-2.76V1.18h23.37v10.213h-1.012c-2.484-8.603-3.221-9.2-5.521-9.2h-9.109v13.801h3.589c2.3 0 3.404-1.426 4.324-6.349h1.012v13.71h-1.012c-.92-4.923-2.024-6.35-4.324-6.35h-3.589v14.998h8.097c3.267 0 4.232-1.243 6.947-10.766h1.012v11.777h-23.784v.002Zm41.491-29.904h-.092v28.892h3.864v1.012h-8.188v-1.012h3.036V2.192h-3.036V1.18h8.833l13.525 23.002h.092V2.192h-3.681V1.18h8.005v1.012h-3.036v30.824h-1.564L476.414 3.112ZM85.742 1.18c7.728 0 10.443 3.68 10.443 7.683 0 4.462-3.497 7.545-10.122 7.959l10.95 15.182h2.253v1.012h-7.315L80.267 16.822h-.184v15.182h3.497v1.012H72.354v-1.012h2.76V2.192h-2.76V1.18h13.388Zm-5.66 14.906h2.715c5.475 0 8.143-2.668 8.143-7.223 0-3.22-1.61-6.671-6.671-6.671h-4.188v13.894Zm56.213 15.918h1.84v1.012h-10.212v-1.012h3.405l-3.773-11.778h-9.707l-4.002 11.778h4.417v1.012h-8.374v-1.012h2.668L123.23.812h2.944l10.121 31.192Zm-18.125-12.79h9.063l-4.371-13.48h-.092l-4.6 13.48Zm40.158 12.79h6.809c3.037 0 3.911-.553 6.671-11.778h1.012v12.79h-22.221v-1.012h2.76V2.192h-2.76V1.18h12.33v1.012h-4.601v29.812ZM199.637 1.18c7.315 0 11.271 3.496 11.271 8.327 0 4.831-3.68 8.051-11.225 8.051h-5.522v14.446h4.233v1.012h-11.961v-1.012h2.76V2.192h-2.76V1.18h13.204Zm-5.476 15.366h4.325c4.969 0 7.177-1.519 7.177-7.039 0-4.324-1.979-7.315-6.763-7.315h-4.739v14.354Zm35.604.46v14.998h3.036v1.012h-10.765v-1.012h2.76V2.192h-2.76V1.18h10.765v1.012h-3.036v13.802h12.191V2.192h-3.037V1.18h10.766v1.012h-2.76v29.812h2.76v1.012H238.92v-1.012h3.037V17.006h-12.192Z"/>
</svg>
