<?xml version="1.0" encoding="UTF-8"?>
<svg width="46px" height="32px" viewBox="0 0 46 32" version="1.1" xmlns="http://www.w3.org/2000/svg" xmlns:xlink="http://www.w3.org/1999/xlink">
    <title>IconographySet_Sign Up Laptop</title>
    <g id="PDP" stroke="none" stroke-width="1" fill="none" fill-rule="evenodd" stroke-linecap="round" stroke-linejoin="round">
        <g id="1.5c-PDP---Info-Modal---No-Icons" transform="translate(-1192.000000, -589.000000)" stroke="#000000" stroke-width="1.12">
            <g id="IconographySet_Sign-Up-Laptop" transform="translate(1193.000000, 590.000000)">
                <polyline id="Path" points="28.4106329 15.0707681 30.8779747 17.5901113 35.6455696 12.7325911"></polyline>
                <ellipse id="Oval" cx="16.4303797" cy="13.8705416" rx="8.07594937" ry="8.20909606"></ellipse>
                <ellipse id="Oval" cx="16.4303797" cy="11.4927345" rx="3.39189873" ry="3.44782034"></ellipse>
                <path d="M10.8162025,19.7697679 C11.4485213,17.8123904 13.24511,16.4883892 15.2718987,16.4861295 L17.6111392,16.4861295 C19.6353205,16.4911001 21.4296416,17.8111504 22.0668354,19.7641064" id="Path"></path>
                <line x1="19.4936709" y1="28.8677109" x2="24.5063291" y2="28.8677109" id="Path"></line>
                <path d="M4.97367089,0 L39.0263291,0 C40.2352035,0 41.2151899,0.996143197 41.2151899,2.2249481 L41.2151899,27.7410832 L2.78481013,27.7410832 L2.78481013,2.2249481 C2.78481013,0.996143197 3.76479647,0 4.97367089,0 Z" id="Path"></path>
                <rect id="Rectangle" x="0" y="27.7354218" width="44" height="2.26457822" rx="1.12"></rect>
            </g>
        </g>
    </g>
</svg>