<?xml version="1.0" encoding="UTF-8"?>
<svg width="46px" height="32px" viewBox="0 0 46 32" version="1.1" xmlns="http://www.w3.org/2000/svg" xmlns:xlink="http://www.w3.org/1999/xlink">
    <title>IconographySet_Laptop</title>
    <g id="PDP" stroke="none" stroke-width="1" fill="none" fill-rule="evenodd">
        <g id="1.5c-PDP---Info-Modal---No-Icons" transform="translate(-1192.000000, -501.000000)">
            <g id="IconographySet_Laptop" transform="translate(1193.000000, 502.000000)">
                <line x1="19.4936709" y1="28.8677109" x2="24.5063291" y2="28.8677109" id="Path" stroke="#000000" stroke-width="1.12" stroke-linecap="round" stroke-linejoin="round"></line>
                <path d="M4.97367089,0 L39.0263291,0 C40.2352035,0 41.2151899,0.996143197 41.2151899,2.2249481 L41.2151899,27.7410832 L2.78481013,27.7410832 L2.78481013,2.2249481 C2.78481013,0.996143197 3.76479647,0 4.97367089,0 Z" id="Path" stroke="#000000" stroke-width="1.12" stroke-linecap="round" stroke-linejoin="round"></path>
                <path d="M29.6582278,9.06963578 L27.1797468,7.6429515 L24.6678481,6.1766371 C23.8952998,5.72594463 22.9449811,5.72805012 22.174373,6.18216154 C21.4037649,6.63627296 20.9297479,7.47351375 20.9306329,8.37893942 L20.9306329,8.70730326 C20.930208,8.88658223 21.0235299,9.05258816 21.1756962,9.14323457 L22.3453165,9.82260804 C22.4942911,9.91279977 22.6795872,9.91410859 22.8297806,9.82603 C22.9799739,9.73795142 23.0716101,9.57423988 23.0693671,9.39799962 L23.0693671,8.5997358 C23.0700843,8.42067042 23.1642417,8.25544511 23.3166974,8.16572612 C23.4691531,8.07600712 23.6569991,8.07527557 23.8101266,8.16380449 L26.1048101,9.50556709 L28.3939241,10.8416682 C28.547155,10.9302244 28.6418042,11.0955971 28.6418042,11.2747688 C28.6418042,11.4539406 28.547155,11.6193132 28.3939241,11.7078694 L26.1048101,13.0439706 L23.8101266,14.3800717 C23.6583338,14.4718872 23.4696804,14.4735782 23.3163183,14.3844979 C23.1629562,14.2954176 23.0686116,14.1293473 23.0693671,13.9498018 L23.0693671,13.5591621 C23.0702521,12.6537364 22.5962351,11.8164956 21.825627,11.3623842 C21.0550189,10.9082728 20.1047002,10.9061673 19.3321519,11.3568598 L16.8202532,12.8231742 L14.3417722,14.2668428 C13.5671935,14.7206959 13.0898999,15.5603541 13.0898999,16.4691451 C13.0898999,17.3779361 13.5671935,18.2175943 14.3417722,18.6714474 L16.8202532,20.0981317 L19.3321519,21.5644461 C20.1047002,22.0151386 21.0550189,22.0130331 21.825627,21.5589217 C22.5962351,21.1048103 23.0702521,20.2675695 23.0693671,19.3621438 L23.0693671,19.03378 C23.0709487,18.8541923 22.9773189,18.6876389 22.8243038,18.5978487 L21.6546835,17.9184752 C21.5057089,17.8282835 21.3204128,17.8269746 21.1702194,17.9150532 C21.0200261,18.0031318 20.9283899,18.1668433 20.9306329,18.3430836 L20.9306329,19.1243631 C20.9299157,19.3034285 20.8357583,19.4686538 20.6833026,19.5583728 C20.5308469,19.6480918 20.3430009,19.6488233 20.1898734,19.5602944 L17.8951899,18.2185318 L15.6060759,16.8824306 C15.452845,16.7938745 15.3581958,16.6285018 15.3581958,16.4493301 C15.3581958,16.2701583 15.452845,16.1047856 15.6060759,16.0162295 L17.8951899,14.6801283 L20.1898734,13.3440272 C20.3416662,13.2522117 20.5303196,13.2505207 20.6836817,13.339601 C20.8370438,13.4286813 20.9313884,13.5947516 20.9306329,13.774297 L20.9306329,14.1649368 C20.9297479,15.0703625 21.4037649,15.9076032 22.174373,16.3617147 C22.9449811,16.8158261 23.8952998,16.8179316 24.6678481,16.3672391 L27.1797468,14.9009247 L29.6582278,13.4572561 C30.424693,13.0012265 30.8957175,12.1661987 30.8957175,11.2634459 C30.8957175,10.3606932 30.424693,9.52566536 29.6582278,9.06963578 L29.6582278,9.06963578 Z" id="Path" fill="#000000" fill-rule="nonzero"></path>
                <rect id="Rectangle" stroke="#000000" stroke-width="1.12" stroke-linecap="round" stroke-linejoin="round" x="0" y="27.7354218" width="44" height="2.26457822" rx="1.12"></rect>
            </g>
        </g>
    </g>
</svg>