<?xml version="1.0" encoding="UTF-8"?>
<svg width="35px" height="48px" viewBox="0 0 35 48" version="1.1" xmlns="http://www.w3.org/2000/svg" xmlns:xlink="http://www.w3.org/1999/xlink">
    <title>IconographySet_Shop</title>
    <g id="PDP" stroke="none" stroke-width="1" fill="none" fill-rule="evenodd" stroke-linecap="round" stroke-linejoin="round">
        <g id="1.5c-PDP---Info-Modal---No-Icons" transform="translate(-1198.000000, -415.000000)" stroke="#000000" stroke-width="1.3552">
            <g id="IconographySet_Shop" transform="translate(1199.000000, 416.000000)">
                <path d="M16.5,35.98 C15.5420857,35.3963705 14.64034,34.7268926 13.8061224,33.98 C12.3716327,32.7333333 10.7620408,30.9866667 10.8159184,29.0733333 C10.8274633,28.6727792 10.911875,28.2775677 11.065102,27.9066667 C11.4826258,26.7397122 12.6141829,25.9736664 13.8642087,26.0117168 C15.1142345,26.0497672 16.1961055,26.8831891 16.5404082,28.0733333 C16.8847108,26.8831891 17.9665819,26.0497672 19.2166077,26.0117168 C20.4666335,25.9736664 21.5981906,26.7397122 22.0157143,27.9066667 C22.1689414,28.2775677 22.253353,28.6727792 22.264898,29.0733333 C22.3187755,30.9866667 20.7091837,32.7333333 19.2746939,33.98 C18.4404763,34.7268926 17.5387306,35.3963705 16.5808163,35.98" id="Path"></path>
                <path d="M6.06122449,22.3333333 L6.06122449,10.3333333 C6.06122449,4.62639092 10.7348235,0 16.5,0 C22.2651765,0 26.9387755,4.62639092 26.9387755,10.3333333 L26.9387755,22.3333333" id="Path"></path>
                <path d="M-0.166666667,12.8333333 L30.36,12.8333333 C31.9100792,12.8333333 33.1666667,14.1027431 33.1666667,15.6686395 L33.1666667,42.9980272 C33.1666667,44.5639235 31.9100792,45.8333333 30.36,45.8333333 L-0.166666667,45.8333333 L-0.166666667,12.8333333 Z" id="Path" transform="translate(16.500000, 29.333333) rotate(90.000000) translate(-16.500000, -29.333333) "></path>
            </g>
        </g>
    </g>
</svg>