<?xml version="1.0" encoding="UTF-8"?>
<svg version="1.1" xmlns="http://www.w3.org/2000/svg" width="390" height="96">
<path d="M0 0 C1.23510818 -0.00953201 2.47021637 -0.01906403 3.74275208 -0.02888489 C5.08330311 -0.02862338 6.42385415 -0.02768595 7.7644043 -0.02612305 C9.15056994 -0.03001441 10.5367344 -0.03434999 11.92289734 -0.03910828 C14.82542793 -0.04655766 17.72783687 -0.04628928 20.63037109 -0.04101562 C24.33230675 -0.03523294 28.03374012 -0.05212858 31.73559284 -0.0753603 C34.5985348 -0.09016532 37.46135782 -0.09096003 40.32433128 -0.08785057 C41.68815287 -0.08836073 43.05198165 -0.09354063 44.41576576 -0.10366249 C60.59285415 -0.2089699 60.59285415 -0.2089699 67.01831055 5.1418457 C67.55713867 5.80442383 68.0959668 6.46700195 68.65112305 7.1496582 C69.20541992 7.80708008 69.7597168 8.46450195 70.33081055 9.1418457 C73.3029594 13.52777347 74.03146793 17.30129322 74.08251953 22.55859375 C74.09850693 23.8072673 74.11449432 25.05594086 74.13096619 26.342453 C74.13734547 27.6987568 74.1427374 29.05506555 74.1472168 30.41137695 C74.15619475 31.8151712 74.16531679 33.21896454 74.17457581 34.62275696 C74.19104056 37.56395788 74.19876073 40.50504537 74.20166016 43.44628906 C74.20702768 47.19089495 74.2446487 50.93441372 74.29040432 54.6787138 C74.3203518 57.57949069 74.32738757 60.48001201 74.32838631 63.38092995 C74.3325572 64.75988533 74.34486392 66.13884372 74.36590385 67.51764488 C74.48530607 76.02231772 74.03437264 83.27443314 68.77612305 90.2746582 C63.4269432 94.66452838 58.63789162 96.38665086 51.71923828 96.4675293 C49.84600136 96.49162369 49.84600136 96.49162369 47.93492126 96.51620483 C46.56819342 96.52769723 45.20145789 96.53830493 43.8347168 96.5480957 C43.14386553 96.55341938 42.45301426 96.55874306 41.7412281 96.56422806 C38.07928707 96.59094502 34.41737984 96.61031817 30.75537109 96.62475586 C27.73976005 96.63805156 24.7248327 96.66582311 21.70947266 96.70678711 C18.05546004 96.75641752 14.40206354 96.78091427 10.74772835 96.78798294 C9.36317274 96.79464878 7.97862833 96.80974761 6.59426689 96.83387375 C-1.93446814 96.97394174 -9.20527548 96.55776503 -16.22387695 91.2746582 C-20.62512399 85.91041383 -22.33913323 81.12419676 -22.40087891 74.18603516 C-22.41371414 72.93075516 -22.42654938 71.67547516 -22.43977356 70.38215637 C-22.44794325 69.0090881 -22.45538654 67.63601534 -22.4621582 66.26293945 C-22.46623373 65.56959188 -22.47030926 64.87624432 -22.47450829 64.16188622 C-22.49535623 60.48927485 -22.50966128 56.81670067 -22.51904297 53.14404297 C-22.53008202 49.36574937 -22.56445562 45.58804883 -22.60421467 41.80996418 C-22.63046848 38.8921353 -22.63874268 35.9744456 -22.64232445 33.05650902 C-22.64717084 31.66474609 -22.65872895 30.27298856 -22.67736244 28.88134193 C-22.79007208 19.90279092 -22.54719883 13.28468221 -16.4777832 6.2512207 C-15.91961914 5.80520508 -15.36145508 5.35918945 -14.78637695 4.8996582 C-14.23079102 4.43817383 -13.67520508 3.97668945 -13.1027832 3.5012207 C-8.81368718 0.70127029 -5.07914854 0.0215891 0 0 Z " fill="#00D633" transform="translate(22.223876953125,-0.274658203125)"/>
<path d="M0 0 C1.21236328 0.01353516 1.21236328 0.01353516 2.44921875 0.02734375 C3.37154297 0.04474609 3.37154297 0.04474609 4.3125 0.0625 C4.3125 2.7025 4.3125 5.3425 4.3125 8.0625 C3.343125 8.330625 2.37375 8.59875 1.375 8.875 C0.364375 9.266875 -0.64625 9.65875 -1.6875 10.0625 C-2.0175 11.0525 -2.3475 12.0425 -2.6875 13.0625 C1.6025 13.0625 5.8925 13.0625 10.3125 13.0625 C10.291875 11.598125 10.27125 10.13375 10.25 8.625 C10.22857993 7.10417482 10.24070036 5.58178038 10.3125 4.0625 C11.3125 3.0625 11.3125 3.0625 13.125 2.9296875 C13.846875 2.93226562 14.56875 2.93484375 15.3125 2.9375 C16.034375 2.93492188 16.75625 2.93234375 17.5 2.9296875 C19.3125 3.0625 19.3125 3.0625 20.3125 4.0625 C20.38429964 5.58178038 20.39642007 7.10417482 20.375 8.625 C20.36597656 9.45128906 20.35695312 10.27757812 20.34765625 11.12890625 C20.33605469 11.76699219 20.32445312 12.40507813 20.3125 13.0625 C21.281875 13.041875 22.25125 13.02125 23.25 13 C26.3125 13.0625 26.3125 13.0625 27.3125 14.0625 C27.4375 17.5625 27.4375 17.5625 27.3125 21.0625 C26.8175 21.5575 26.8175 21.5575 26.3125 22.0625 C24.3325 22.0625 22.3525 22.0625 20.3125 22.0625 C20.3125 28.3325 20.3125 34.6025 20.3125 41.0625 C22.6225 41.3925 24.9325 41.7225 27.3125 42.0625 C27.3125 44.7025 27.3125 47.3425 27.3125 50.0625 C15.27811287 50.63155158 15.27811287 50.63155158 11.3125 47.0625 C10.31244696 44.06234088 10.19674415 42.08826244 10.21484375 38.95703125 C10.21806641 37.97412109 10.22128906 36.99121094 10.22460938 35.97851562 C10.23298828 34.95435547 10.24136719 33.93019531 10.25 32.875 C10.25451172 31.83923828 10.25902344 30.80347656 10.26367188 29.73632812 C10.27545974 27.1783608 10.29339518 24.62042314 10.3125 22.0625 C6.0225 22.0625 1.7325 22.0625 -2.6875 22.0625 C-2.67009766 24.96869141 -2.67009766 24.96869141 -2.65234375 27.93359375 C-2.64296779 30.45572821 -2.63386738 32.9778637 -2.625 35.5 C-2.61662109 36.77939453 -2.60824219 38.05878906 -2.59960938 39.37695312 C-2.59638672 40.59189453 -2.59316406 41.80683594 -2.58984375 43.05859375 C-2.58460693 44.18450928 -2.57937012 45.3104248 -2.57397461 46.47045898 C-2.6875 49.0625 -2.6875 49.0625 -3.6875 50.0625 C-5.5 50.1953125 -5.5 50.1953125 -7.6875 50.1875 C-8.409375 50.19007812 -9.13125 50.19265625 -9.875 50.1953125 C-11.6875 50.0625 -11.6875 50.0625 -12.6875 49.0625 C-12.77508003 47.06285018 -12.79446576 45.0601389 -12.78515625 43.05859375 C-12.78193359 41.84365234 -12.77871094 40.62871094 -12.77539062 39.37695312 C-12.76701172 38.09755859 -12.75863281 36.81816406 -12.75 35.5 C-12.74548828 34.21673828 -12.74097656 32.93347656 -12.73632812 31.61132812 C-12.72449545 28.42833978 -12.70801068 25.24544238 -12.6875 22.0625 C-14.3375 21.7325 -15.9875 21.4025 -17.6875 21.0625 C-17.8125 18.1875 -17.8125 18.1875 -17.6875 15.0625 C-17.0275 14.4025 -16.3675 13.7425 -15.6875 13.0625 C-14.6975 13.0625 -13.7075 13.0625 -12.6875 13.0625 C-12.605 12.010625 -12.5225 10.95875 -12.4375 9.875 C-11.62542101 5.74693182 -10.62919359 4.00419359 -7.6875 1.0625 C-4.80538698 0.10179566 -2.98899956 -0.04331883 0 0 Z " fill="#000000" transform="translate(186.6875,22.9375)"/>
<path d="M0 0 C3.3 0 6.6 0 10 0 C9.67 2.64 9.34 5.28 9 8 C9.53625 8.0825 10.0725 8.165 10.625 8.25 C13.92595083 9.29240553 16.29851455 10.85109112 19 13 C19 14.32 19 15.64 19 17 C16.5 19.25 16.5 19.25 14 21 C11.76959388 19.92610076 9.85003987 18.88532461 7.875 17.375 C3.73447528 15.39474905 -0.48193607 15.21891098 -5 16 C-6.94488594 17.15241234 -6.94488594 17.15241234 -8 19 C-8.36858147 21.12473164 -8.36858147 21.12473164 -7 23 C-4.42175641 23.97961236 -2.03349946 24.71074368 0.625 25.375 C7.08083692 27.16911964 11.3825149 28.93202855 16 34 C17.55944339 37.11888678 17.28316275 39.5454145 17 43 C14.77009118 48.81715345 11.0691884 52.4654058 5.5 55.25 C2.86789896 56.03963031 0.7321625 56.15612357 -2 56 C-2.33 57.98 -2.66 59.96 -3 62 C-6.63 62 -10.26 62 -14 62 C-13.79375 60.96875 -13.5875 59.9375 -13.375 58.875 C-13.55151996 54.94266934 -13.55151996 54.94266934 -16.19140625 53.33984375 C-18.00639413 52.3303697 -19.84843198 51.3679242 -21.71484375 50.45703125 C-24 49 -24 49 -24.81640625 46.82421875 C-24.87699219 46.22222656 -24.93757813 45.62023438 -25 45 C-23.02 43.35 -21.04 41.7 -19 40 C-16.07909997 41.30936898 -14.24380538 42.75619462 -12 45 C-8.93301363 46.02232879 -6.71335122 46.1659049 -3.5 46.1875 C-2.5409375 46.20167969 -1.581875 46.21585938 -0.59375 46.23046875 C2.23746139 46.18755111 2.23746139 46.18755111 5 44 C5.25030977 41.41619823 5.25030977 41.41619823 5 39 C0.99318543 37.17080204 -2.87244428 35.72113045 -7.125 34.5625 C-11.9795648 33.14597045 -15.28952405 31.36208584 -18.3125 27.1875 C-19.33529387 23.93315587 -19.35124367 21.39535546 -19 18 C-15.87931265 12.10536834 -12.11852253 8.61509323 -5.8125 6.5625 C-2.43463889 5.42823339 -2.43463889 5.42823339 -0.5 2.3125 C-0.335 1.549375 -0.17 0.78625 0 0 Z " fill="#F6FDF8" transform="translate(50,17)"/>
<path d="M0 0 C3.96 0 7.92 0 12 0 C12.4439209 1.1552417 12.8878418 2.3104834 13.34521484 3.50073242 C14.99607669 7.79659982 16.64738567 12.09229522 18.29882812 16.38793945 C19.01281693 18.24531458 19.7266853 20.10273601 20.44042969 21.96020508 C21.46778023 24.63374894 22.49556715 27.3071247 23.5234375 29.98046875 C23.84122162 30.80773972 24.15900574 31.63501068 24.48641968 32.48735046 C24.7865799 33.26778214 25.08674011 34.04821381 25.39599609 34.85229492 C25.67433289 35.57758392 25.95266968 36.30287292 26.23944092 37.05014038 C26.87217212 38.67228526 27.53686864 40.28191747 28.20947266 41.88793945 C29.13651393 44.36472577 29.1498922 46.37688642 29 49 C26.03 49 23.06 49 20 49 C19.32880451 47.5437455 18.66318193 46.08492133 18 44.625 C17.62875 43.81289062 17.2575 43.00078125 16.875 42.1640625 C16 40 16 40 16 38 C6.1 38.495 6.1 38.495 -4 39 C-5.98 43.95 -5.98 43.95 -8 49 C-10.97 49 -13.94 49 -17 49 C-16.41465518 43.13722162 -14.763002 38.12116688 -12.65625 32.63671875 C-12.32709595 31.76352493 -11.99794189 30.89033112 -11.65881348 29.99067688 C-10.61255234 27.22036974 -9.55630904 24.45398927 -8.5 21.6875 C-7.78973196 19.80948393 -7.08009002 17.93123094 -6.37109375 16.05273438 C-5.07592728 12.62970395 -3.77978553 9.20706963 -2.47460938 5.7878418 C-2.2133728 5.10280075 -1.95213623 4.4177597 -1.6829834 3.71195984 C-1 2 -1 2 0 0 Z M5 12 C4.16080602 14.26882087 3.32848276 16.53977027 2.5 18.8125 C2.26152344 19.45509766 2.02304688 20.09769531 1.77734375 20.75976562 C0.72931254 23.64933739 0 25.90076061 0 29 C3.96 29 7.92 29 12 29 C10.31108451 23.12900806 8.53630629 17.55571853 6 12 C5.67 12 5.34 12 5 12 Z " fill="#000000" transform="translate(140,24)"/>
<path d="M0 0 C3.5625 0.1875 3.5625 0.1875 5.5625 2.1875 C6.12195313 1.86523438 6.68140625 1.54296875 7.2578125 1.2109375 C11.25859789 -0.56568245 15.27322934 -0.35544565 19.5625 0.1875 C24.44728796 2.53943495 26.92311943 5.49526787 29.5625 10.1875 C31.50568338 16.51893195 31.26560878 23.23037845 28.66796875 29.328125 C25.87534209 34.02526384 22.27169179 36.69915949 17.0625 38.1875 C13.19457346 38.1875 10.19276993 37.49439717 6.5625 36.1875 C6.2325 35.8575 5.9025 35.5275 5.5625 35.1875 C5.2325 39.8075 4.9025 44.4275 4.5625 49.1875 C1.5925 49.1875 -1.3775 49.1875 -4.4375 49.1875 C-4.46214247 42.36987576 -4.48033244 35.5522772 -4.49243164 28.73461914 C-4.49747333 26.41332549 -4.50430651 24.09203503 -4.51293945 21.77075195 C-4.52501225 18.44221205 -4.53072979 15.11371398 -4.53515625 11.78515625 C-4.54031754 10.74037613 -4.54547882 9.69559601 -4.55079651 8.61915588 C-4.55087204 7.65823532 -4.55094757 6.69731476 -4.55102539 5.70727539 C-4.553246 4.85678116 -4.55546661 4.00628693 -4.55775452 3.13002014 C-4.34565748 -0.29606955 -3.54555181 0.19339373 0 0 Z M5.5625 12.1875 C3.94938257 17.02685228 4.00778071 20.82591629 5.9375 25.5625 C7.29843741 28.27426342 7.29843741 28.27426342 9.5625 29.1875 C12.91169863 29.47873466 14.92006835 29.55212337 17.875 27.875 C20.55127345 25.19872655 20.75746412 22.43755407 20.875 18.8125 C20.82621632 15.48436906 20.57398729 14.20870731 18.9375 11.1875 C13.80810109 6.86800618 10.11045233 7.50960617 5.5625 12.1875 Z " fill="#000000" transform="translate(287.4375,35.8125)"/>
<path d="M0 0 C3.21056568 2.40792426 4.0550701 4.11068695 5.5 7.875 C5.84913633 11.34413897 5.78436079 14.76797879 5.6875 18.25 C5.66719727 19.64025391 5.66719727 19.64025391 5.64648438 21.05859375 C5.61133881 23.33133998 5.56214132 25.60285847 5.5 27.875 C6.49 28.205 7.48 28.535 8.5 28.875 C8.5 31.185 8.5 33.495 8.5 35.875 C3.60358447 36.03821385 0.86226282 36.05613141 -3.5 33.875 C-4.08394531 34.18050781 -4.66789062 34.48601562 -5.26953125 34.80078125 C-9.4112191 36.79546454 -14.00701171 36.31496621 -18.5 35.875 C-22.24030185 34.27201349 -23.23158465 33.27762302 -25.5 29.875 C-26.31604146 25.287988 -26.18927719 21.89779842 -23.5625 18 C-17.76491312 13.97718462 -11.43212884 12.61246051 -4.5 11.875 C-5.16 10.555 -5.82 9.235 -6.5 7.875 C-9.93230448 8.13893501 -9.93230448 8.13893501 -13.5 8.875 C-14.49 10.36 -14.49 10.36 -15.5 11.875 C-18.14 11.545 -20.78 11.215 -23.5 10.875 C-23.83 9.885 -24.16 8.895 -24.5 7.875 C-19.37605912 -1.96296649 -9.94117224 -3.19537679 0 0 Z M-14.5 21.875 C-15.84410262 23.89235205 -15.84410262 23.89235205 -16.5 25.875 C-15.39958081 27.56181738 -15.39958081 27.56181738 -13.5 28.875 C-9.64751405 28.63421963 -7.73960066 28.03473378 -4.5 25.875 C-4.2497843 22.79134129 -4.2497843 22.79134129 -4.5 19.875 C-8.33907326 19.65562439 -11.09369827 20.03375582 -14.5 21.875 Z " fill="#000000" transform="translate(346.5,37.125)"/>
<path d="M0 0 C3.8198552 2.5736613 6.00388572 6.06428699 7.125 10.5 C7.125 13.47 7.125 16.44 7.125 19.5 C-0.795 19.5 -8.715 19.5 -16.875 19.5 C-15.22422098 23.25170424 -15.22422098 23.25170424 -12.875 26.5 C-7.15547797 27.13873872 -7.15547797 27.13873872 -2.375 24.5 C-1.88 23.84 -1.385 23.18 -0.875 22.5 C1.47671131 23.09861742 3.8109378 23.76924352 6.125 24.5 C6.62 25.49 6.62 25.49 7.125 26.5 C4.38819136 31.23678418 2.28134526 33.57900863 -2.875 35.5 C-8.88166003 37.08666491 -13.38867504 36.15034871 -18.875 33.5 C-23.49796883 29.98252372 -25.50936825 26.02604477 -26.875 20.5 C-27.46318397 15.01028293 -26.64768652 10.27249875 -23.875 5.5 C-17.60681912 -1.34609826 -8.80236017 -4.32496918 0 0 Z M-16.875 11.5 C-16.875 11.83 -16.875 12.16 -16.875 12.5 C-12.255 12.5 -7.635 12.5 -2.875 12.5 C-3.50341973 8.5285831 -3.50341973 8.5285831 -5.875 6.5 C-11.40018981 5.64052603 -13.3978555 7.3069728 -16.875 11.5 Z " fill="#000000" transform="translate(243.875,37.5)"/>
<path d="M0 0 C3.3125 -0.3125 3.3125 -0.3125 7 0 C9.76465683 3.67008194 11.16583757 7.82047745 12.6875 12.125 C13.34298828 13.95417969 13.34298828 13.95417969 14.01171875 15.8203125 C15 19 15 19 15 22 C15.66 22 16.32 22 17 22 C17.2475 20.7625 17.495 19.525 17.75 18.25 C21.16104294 2.83895706 21.16104294 2.83895706 24 0 C26.67058851 -0.14115161 29.32432238 -0.04247107 32 0 C33.03090206 3.14803584 32.985479 4.87028686 31.81591797 7.95483398 C31.53166962 8.71920273 31.24742126 9.48357147 30.95455933 10.27110291 C30.63697662 11.08784988 30.31939392 11.90459686 29.9921875 12.74609375 C29.66969025 13.59422134 29.34719299 14.44234894 29.0149231 15.31617737 C28.32927955 17.10947429 27.63795719 18.90060875 26.94140625 20.68969727 C25.88280243 23.41739552 24.85055282 26.15406134 23.8203125 28.89257812 C23.15001461 30.63602383 22.47818848 32.37888291 21.8046875 34.12109375 C21.49925018 34.9358165 21.19381287 35.75053925 20.87911987 36.58995056 C18.76895692 41.93230162 16.37376483 46.31311758 11 49 C9.45976004 49.06950541 7.91665012 49.08452357 6.375 49.0625 C5.14910156 49.04896484 5.14910156 49.04896484 3.8984375 49.03515625 C3.27195312 49.02355469 2.64546875 49.01195312 2 49 C2 46.36 2 43.72 2 41 C4.97 40.505 4.97 40.505 8 40 C9.57416227 36.44153727 10.13909908 34.56851592 9.20141602 30.73608398 C8.72373779 29.58438721 8.24605957 28.43269043 7.75390625 27.24609375 C7.50454819 26.6227565 7.25519012 25.99941925 6.99827576 25.35719299 C6.20398225 23.37624376 5.38567251 21.40660578 4.5625 19.4375 C3.7450695 17.46415097 2.93359875 15.48912643 2.13743591 13.50709534 C1.41489154 11.71056725 0.67195047 9.92228245 -0.07202148 8.13452148 C-1.0379893 4.87167994 -0.99728826 3.20731207 0 0 Z " fill="#000000" transform="translate(357,36)"/>
<path d="M0 0 C0.94552734 0.16242187 0.94552734 0.16242187 1.91015625 0.328125 C2.57015625 1.318125 3.23015625 2.308125 3.91015625 3.328125 C4.99296875 2.585625 4.99296875 2.585625 6.09765625 1.828125 C9.06808279 0.24389751 10.60892205 -0.0386788 13.91015625 0.328125 C14.91015625 1.328125 14.91015625 1.328125 15.0078125 3.17578125 C14.97526042 5.2265625 14.94270833 7.27734375 14.91015625 9.328125 C14.28367187 9.50988281 13.6571875 9.69164062 13.01171875 9.87890625 C11.78582031 10.25595703 11.78582031 10.25595703 10.53515625 10.640625 C9.31699219 11.00607422 9.31699219 11.00607422 8.07421875 11.37890625 C5.57830996 12.24180685 5.57830996 12.24180685 3.91015625 15.328125 C3.54377035 17.74525979 3.54377035 17.74525979 3.49609375 20.43359375 C3.43808594 21.90795898 3.43808594 21.90795898 3.37890625 23.41210938 C3.34796875 24.43626953 3.31703125 25.46042969 3.28515625 26.515625 C3.22714844 28.06926758 3.22714844 28.06926758 3.16796875 29.65429688 C3.07367329 32.21206122 2.98807423 34.76981787 2.91015625 37.328125 C1.43108733 37.35501716 -0.04811858 37.37447121 -1.52734375 37.390625 C-2.35105469 37.40222656 -3.17476563 37.41382813 -4.0234375 37.42578125 C-6.08984375 37.328125 -6.08984375 37.328125 -7.08984375 36.328125 C-7.1907585 33.74623054 -7.22955874 31.19166 -7.22265625 28.609375 C-7.22361298 27.83630005 -7.2245697 27.0632251 -7.22555542 26.26672363 C-7.22623716 24.62914956 -7.22438332 22.99157281 -7.22021484 21.35400391 C-7.21486646 18.83880579 -7.22016001 16.32378627 -7.2265625 13.80859375 C-7.22590172 12.22135377 -7.22462055 10.6341139 -7.22265625 9.046875 C-7.22468048 8.28959106 -7.22670471 7.53230713 -7.22879028 6.7520752 C-7.19861036 0.07469455 -6.66267569 0.24183941 0 0 Z " fill="#000000" transform="translate(263.08984375,35.671875)"/>
</svg>
