<?xml version="1.0" encoding="utf-8"?>
<!-- Generator: Adobe Illustrator 27.2.0, SVG Export Plug-In . SVG Version: 6.00 Build 0)  -->
<svg version="1.1" id="Layer_1" xmlns="http://www.w3.org/2000/svg" xmlns:xlink="http://www.w3.org/1999/xlink" x="0px" y="0px"
	 viewBox="0 0 56 56" style="enable-background:new 0 0 56 56;" xml:space="preserve">
<path id="_xF8FF_" d="M27.8,14.2c1.9,0,4.3-1.3,5.8-3.1c1.3-1.6,2.3-3.9,2.3-6.2c0-0.3,0-0.6-0.1-0.9c-2.1,0.1-4.7,1.5-6.3,3.4
	c-1.2,1.4-2.3,3.7-2.3,6c0,0.3,0.1,0.7,0.1,0.8C27.4,14.2,27.6,14.2,27.8,14.2z M21,48.1c2.6,0,3.8-1.8,7.1-1.8c3.3,0,4.1,1.8,7,1.8
	c2.9,0,4.8-2.7,6.6-5.4c2-3.1,2.9-6.1,2.9-6.2C44.5,36.3,39,34,39,27.5c0-5.7,4.3-8.2,4.6-8.4c-2.9-4.3-7.3-4.4-8.5-4.4
	c-3.2,0-5.9,2-7.5,2c-1.8,0-4.2-1.9-7-1.9c-5.3,0-10.7,4.5-10.7,13.1c0,5.3,2,11,4.5,14.6C16.5,45.6,18.3,48.1,21,48.1z"/>
</svg>
