<?xml version="1.0" encoding="UTF-8"?>
<svg width="41px" height="21px" viewBox="0 0 41 21" version="1.1" xmlns="http://www.w3.org/2000/svg" xmlns:xlink="http://www.w3.org/1999/xlink">
    <title>Group 3</title>
    <g id="PDP" stroke="none" stroke-width="1" fill="none" fill-rule="evenodd">
        <g id="1.6-PDP---Info-Modal---No-Icons" transform="translate(-1337.000000, -297.000000)">
            <g id="Group-4" transform="translate(1144.000000, 139.000000)">
                <g id="Group-3" transform="translate(193.000000, 158.000000)">
                    <rect id="Rectangle" fill="#FFB3C7" x="0" y="0" width="41" height="21" rx="4.5"></rect>
                    <g id="klarna" transform="translate(5.314815, 7.125000)" fill="#000000" fill-rule="nonzero">
                        <path d="M5.47809998,0 L3.94533173,0 C3.94533173,1.22181009 3.36796611,2.33679525 2.36444968,3.07121662 L1.75959046,3.51186944 L4.11029334,6.6231454 L6.0417188,6.6231454 L3.87659773,3.75890208 C4.90073436,2.77077151 5.47809998,1.43545994 5.47809998,0 Z" id="Path"></path>
                        <rect id="Rectangle" x="0" y="0" width="1.56713525" height="6.6231454"></rect>
                        <rect id="Rectangle" x="6.49536321" y="0" width="1.47778105" height="6.6231454"></rect>
                        <path d="M20.9363771,1.91617211 C20.3727583,1.91617211 19.8366331,2.08308605 19.4792162,2.55712166 L19.4792162,2.04302671 L18.0770426,2.04302671 L18.0770426,6.6231454 L19.4998364,6.6231454 L19.4998364,4.21958457 C19.4998364,3.52522255 19.9809745,3.1847181 20.5583401,3.1847181 C21.1769461,3.1847181 21.5343629,3.54525223 21.5343629,4.21290801 L21.5343629,6.62982196 L22.94341,6.62982196 L22.94341,3.71216617 C22.94341,2.64391691 22.0704881,1.91617211 20.9363771,1.91617211 Z" id="Path"></path>
                        <path d="M12.4408544,2.04302671 L12.4408544,2.33679525 C12.0421972,2.06973294 11.5610592,1.91617211 11.0386808,1.91617211 C9.66400072,1.91617211 8.55050988,2.99777448 8.55050988,4.33308605 C8.55050988,5.66839763 9.66400072,6.75 11.0386808,6.75 C11.5610592,6.75 12.0421972,6.59643917 12.4408544,6.32937685 L12.4408544,6.6231454 L13.8499015,6.6231454 L13.8499015,2.04302671 L12.4408544,2.04302671 Z M11.1555286,5.50816024 C10.4475683,5.50816024 9.87707613,4.98071217 9.87707613,4.33308605 C9.87707613,3.68545994 10.4475683,3.15801187 11.1555286,3.15801187 C11.8634888,3.15801187 12.433981,3.68545994 12.433981,4.33308605 C12.433981,4.98071217 11.8634888,5.50816024 11.1555286,5.50816024 Z" id="Shape"></path>
                        <path d="M16.0356427,2.63724036 L16.0356427,2.04302671 L14.5922287,2.04302671 L14.5922287,6.6231454 L16.0425161,6.6231454 L16.0425161,4.48664688 C16.0425161,3.76557864 16.846704,3.37833828 17.4034494,3.37833828 C17.4103228,3.37833828 17.4171962,3.37833828 17.4171962,3.37833828 L17.4171962,2.04302671 C16.846704,2.04302671 16.3174521,2.28338279 16.0356427,2.63724036 Z" id="Path"></path>
                        <path d="M27.3286393,2.04302671 L27.3286393,2.33679525 C26.9299821,2.06973294 26.4488441,1.91617211 25.9264657,1.91617211 C24.5517856,1.91617211 23.4382948,2.99777448 23.4382948,4.33308605 C23.4382948,5.66839763 24.5517856,6.75 25.9264657,6.75 C26.4488441,6.75 26.9299821,6.59643917 27.3286393,6.32937685 L27.3286393,6.6231454 L28.7376864,6.6231454 L28.7376864,2.04302671 L27.3286393,2.04302671 Z M26.0433135,5.50816024 C25.3353532,5.50816024 24.764861,4.98071217 24.764861,4.33308605 C24.764861,3.68545994 25.3353532,3.15801187 26.0433135,3.15801187 C26.7512737,3.15801187 27.3217659,3.68545994 27.3217659,4.33308605 C27.3286393,4.98071217 26.7512737,5.50816024 26.0433135,5.50816024 Z" id="Shape"></path>
                        <g id="Group" transform="translate(29.349419, 1.922849)">
                            <path d="M0.530525911,0.256083086 C0.530525911,0.187833828 0.473068454,0.146884273 0.382778163,0.146884273 L0.226822208,0.146884273 L0.226822208,0.501780415 L0.300696081,0.501780415 L0.300696081,0.372106825 L0.382778163,0.372106825 L0.448443829,0.501780415 L0.530525911,0.501780415 L0.456652037,0.358456973 C0.505901287,0.337982196 0.530525911,0.303857567 0.530525911,0.256083086 Z M0.382778163,0.310682493 L0.300696081,0.310682493 L0.300696081,0.20148368 L0.382778163,0.20148368 C0.432027413,0.20148368 0.456652037,0.221958457 0.456652037,0.256083086 C0.456652037,0.290207715 0.440235621,0.310682493 0.382778163,0.310682493 Z" id="Shape"></path>
                            <path d="M0.338550024,0 C0.152002052,0 0,0.150148368 0,0.334421365 C0.00690918416,0.518694362 0.152002052,0.66884273 0.338550024,0.66884273 C0.525097996,0.66884273 0.677100048,0.518694362 0.677100048,0.334421365 C0.677100048,0.150148368 0.525097996,0 0.338550024,0 Z M0.338550024,0.607418398 C0.186547972,0.607418398 0.0690918416,0.484569733 0.0690918416,0.334421365 C0.0690918416,0.184272997 0.193457156,0.0614243323 0.338550024,0.0614243323 C0.490552075,0.0614243323 0.608008206,0.184272997 0.608008206,0.334421365 C0.608008206,0.484569733 0.483642891,0.607418398 0.338550024,0.607418398 Z" id="Shape"></path>
                        </g>
                        <path d="M30.242961,5.00074184 C29.7549496,5.00074184 29.3562924,5.3879822 29.3562924,5.8620178 C29.3562924,6.33605341 29.7549496,6.72329377 30.242961,6.72329377 C30.7309724,6.72329377 31.1296296,6.33605341 31.1296296,5.8620178 C31.1296296,5.38130564 30.7309724,5.00074184 30.242961,5.00074184 Z" id="Path"></path>
                    </g>
                </g>
            </g>
        </g>
    </g>
</svg>